<svg width="22" height="22" viewBox="0 0 22 22" fill="none" xmlns="http://www.w3.org/2000/svg">
                <path d="M11 0C4.92339 0 0 4.92339 0 11C0 17.0766 4.92339 22 11 22C17.0766 22 22 17.0766 22 11C22 4.92339 17.0766 0 11 0ZM17.3871 12.2419C17.3871 12.5347 17.1476 12.7742 16.8548 12.7742H12.7742V16.8548C12.7742 17.1476 12.5347 17.3871 12.2419 17.3871H9.75806C9.46532 17.3871 9.22581 17.1476 9.22581 16.8548V12.7742H5.14516C4.85242 12.7742 4.6129 12.5347 4.6129 12.2419V9.75806C4.6129 9.46532 4.85242 9.22581 5.14516 9.22581H9.22581V5.14516C9.22581 4.85242 9.46532 4.6129 9.75806 4.6129H12.2419C12.5347 4.6129 12.7742 4.85242 12.7742 5.14516V9.22581H16.8548C17.1476 9.22581 17.3871 9.46532 17.3871 9.75806V12.2419Z" fill="white"/>
                </svg>