<svg width="26" height="26" viewBox="0 0 26 26" fill="none" xmlns="http://www.w3.org/2000/svg">
<path d="M23.4685 8.59221C22.8989 7.23261 22.0701 5.99682 21.0285 4.95373C19.99 3.90883 18.7563 3.07807 17.3976 2.50862C16.0058 1.92243 14.5103 1.62195 13 1.62502H12.9492C11.4131 1.63264 9.92771 1.93733 8.52869 2.53655C7.18164 3.11183 5.95959 3.94407 4.93084 4.98674C3.8993 6.02749 3.08005 7.25895 2.51873 8.61252C1.93605 10.0201 1.64081 11.53 1.65037 13.0533C1.65799 14.8155 2.07947 16.5649 2.86658 18.1289V21.9883C2.86658 22.6332 3.38963 23.1563 4.03201 23.1563H7.88631C9.45767 23.9492 11.1917 24.3664 12.9517 24.375H13.0051C14.5234 24.375 15.9935 24.0805 17.3799 23.5041C18.7317 22.9415 19.9607 22.1204 20.998 21.0869C22.0441 20.0485 22.8668 18.8348 23.4431 17.4815C24.0398 16.0799 24.3445 14.5895 24.3521 13.0508C24.3572 11.5045 24.0576 10.0039 23.4685 8.59221ZM7.93201 14.2188C7.2617 14.2188 6.7158 13.6729 6.7158 13C6.7158 12.3272 7.2617 11.7813 7.93201 11.7813C8.60232 11.7813 9.14822 12.3272 9.14822 13C9.14822 13.6729 8.60486 14.2188 7.93201 14.2188ZM13 14.2188C12.3297 14.2188 11.7838 13.6729 11.7838 13C11.7838 12.3272 12.3297 11.7813 13 11.7813C13.6703 11.7813 14.2162 12.3272 14.2162 13C14.2162 13.6729 13.6703 14.2188 13 14.2188ZM18.0679 14.2188C17.3976 14.2188 16.8517 13.6729 16.8517 13C16.8517 12.3272 17.3976 11.7813 18.0679 11.7813C18.7383 11.7813 19.2842 12.3272 19.2842 13C19.2842 13.6729 18.7383 14.2188 18.0679 14.2188Z" fill="#00B1FF"/>
</svg>
