<svg width="32" height="32" viewBox="0 0 32 32" fill="none" xmlns="http://www.w3.org/2000/svg">
<path d="M26.6663 5.33398H7.99967C6.52901 5.33398 5.33301 6.52998 5.33301 8.00065V14.6673H7.99967V10.6673L16.533 17.0673C16.7639 17.2402 17.0446 17.3337 17.333 17.3337C17.6214 17.3337 17.9021 17.2402 18.133 17.0673L26.6663 10.6673V22.6673H15.9997V25.334H26.6663C28.137 25.334 29.333 24.138 29.333 22.6673V8.00065C29.333 6.52998 28.137 5.33398 26.6663 5.33398ZM17.333 14.334L8.88767 8.00065H25.7783L17.333 14.334Z" fill="#00B1FF"/>
<path d="M2.66699 16H12.0003V18.6667H2.66699V16ZM5.33366 20H13.3337V22.6667H5.33366V20ZM9.33366 24H14.667V26.6667H9.33366V24Z" fill="#00B1FF"/>
</svg>
