<svg width="62" height="62" viewBox="0 0 62 62" fill="none" xmlns="http://www.w3.org/2000/svg">
<path d="M41.3333 5.16797H20.6667C12.1184 5.16797 5.16667 12.1197 5.16667 20.668V51.668C5.16667 52.3531 5.43884 53.0102 5.92331 53.4947C6.40778 53.9791 7.06486 54.2513 7.75001 54.2513H41.3333C49.8816 54.2513 56.8333 47.2996 56.8333 38.7513V20.668C56.8333 12.1197 49.8816 5.16797 41.3333 5.16797ZM51.6667 38.7513C51.6667 44.4501 47.0322 49.0846 41.3333 49.0846H10.3333V20.668C10.3333 14.9691 14.9678 10.3346 20.6667 10.3346H41.3333C47.0322 10.3346 51.6667 14.9691 51.6667 20.668V38.7513Z" fill="white"/>
<path d="M24.5417 33.582C26.6818 33.582 28.4167 31.8471 28.4167 29.707C28.4167 27.5669 26.6818 25.832 24.5417 25.832C22.4016 25.832 20.6667 27.5669 20.6667 29.707C20.6667 31.8471 22.4016 33.582 24.5417 33.582Z" fill="white"/>
<path d="M37.4583 33.582C39.5984 33.582 41.3333 31.8471 41.3333 29.707C41.3333 27.5669 39.5984 25.832 37.4583 25.832C35.3182 25.832 33.5833 27.5669 33.5833 29.707C33.5833 31.8471 35.3182 33.582 37.4583 33.582Z" fill="white"/>
</svg>
