<svg width="61" height="60" viewBox="0 0 61 60" fill="none" xmlns="http://www.w3.org/2000/svg">
<path d="M30.5 15C28.6149 15 26.7721 15.5498 25.2047 16.58C23.6373 17.6101 22.4157 19.0743 21.6943 20.7873C20.9729 22.5004 20.7841 24.3854 21.1519 26.204C21.5197 28.0225 22.4274 29.693 23.7604 31.0041C25.0934 32.3152 26.7917 33.2081 28.6406 33.5699C30.4894 33.9316 32.4059 33.7459 34.1475 33.0364C35.8891 32.3268 37.3776 31.1252 38.425 29.5835C39.4723 28.0418 40.0313 26.2292 40.0313 24.375C40.0313 21.8886 39.0271 19.504 37.2396 17.7459C35.4522 15.9877 33.0279 15 30.5 15ZM30.5 30C29.3689 30 28.2633 29.6701 27.3228 29.052C26.3824 28.4339 25.6494 27.5554 25.2166 26.5276C24.7837 25.4998 24.6705 24.3688 24.8911 23.2776C25.1118 22.1865 25.6565 21.1842 26.4562 20.3975C27.256 19.6109 28.275 19.0751 29.3843 18.8581C30.4937 18.641 31.6435 18.7524 32.6885 19.1782C33.7334 19.6039 34.6266 20.3249 35.255 21.2499C35.8834 22.1749 36.2188 23.2625 36.2188 24.375C36.2172 25.8664 35.6142 27.2963 34.5421 28.3508C33.47 29.4054 32.0162 29.9985 30.5 30Z" fill="white"/>
<path d="M30.5 3.75C25.2217 3.75 20.062 5.28954 15.6732 8.17392C11.2845 11.0583 7.86389 15.158 5.84398 19.9546C3.82406 24.7511 3.29556 30.0291 4.3253 35.1211C5.35505 40.2131 7.89679 44.8904 11.6291 48.5616C15.3614 52.2327 20.1167 54.7327 25.2935 55.7456C30.4704 56.7585 35.8364 56.2386 40.7129 54.2518C45.5894 52.265 49.7574 48.9005 52.6899 44.5837C55.6223 40.2669 57.1875 35.1918 57.1875 30C57.1794 23.0405 54.3651 16.3683 49.362 11.4472C44.3589 6.52611 37.5755 3.75794 30.5 3.75ZM19.0625 49.4569V46.875C19.064 45.3836 19.667 43.9537 20.7392 42.8992C21.8113 41.8446 23.265 41.2515 24.7813 41.25H36.2188C37.735 41.2515 39.1887 41.8446 40.2609 42.8992C41.333 43.9537 41.936 45.3836 41.9375 46.875V49.4569C38.4665 51.4504 34.5194 52.5009 30.5 52.5009C26.4807 52.5009 22.5335 51.4504 19.0625 49.4569ZM45.7348 46.7363C45.6968 44.2769 44.678 41.9306 42.8981 40.203C41.1181 38.4753 38.7194 37.5046 36.2188 37.5H24.7813C22.2806 37.5046 19.8819 38.4753 18.1019 40.203C16.322 41.9306 15.3033 44.2769 15.2653 46.7363C11.8084 43.7002 9.37062 39.7029 8.27473 35.2737C7.17883 30.8446 7.47651 26.1925 9.12835 21.9335C10.7802 17.6745 13.7083 14.0094 17.5249 11.4236C21.3415 8.83775 25.8666 7.45317 30.501 7.45317C35.1354 7.45317 39.6604 8.83775 43.4771 11.4236C47.2937 14.0094 50.2217 17.6745 51.8736 21.9335C53.5254 26.1925 53.8231 30.8446 52.7272 35.2737C51.6313 39.7029 49.1935 43.7002 45.7367 46.7363H45.7348Z" fill="white"/>
</svg>
