<svg width="16" height="16" viewBox="0 0 16 16" fill="none" xmlns="http://www.w3.org/2000/svg">
<path d="M8.71555 7.9994L10.8756 5.8394C10.9484 5.75438 10.9864 5.64501 10.9821 5.53316C10.9778 5.4213 10.9314 5.3152 10.8522 5.23604C10.7731 5.15689 10.667 5.11052 10.5551 5.1062C10.4433 5.10188 10.3339 5.13993 10.2489 5.21274L8.08889 7.35052L5.91555 5.17718C5.83053 5.10437 5.72116 5.06632 5.60931 5.07064C5.49745 5.07496 5.39135 5.12133 5.31219 5.20049C5.23304 5.27964 5.18667 5.38575 5.18235 5.4976C5.17803 5.60946 5.21608 5.71883 5.28889 5.80385L7.45778 7.9994L5.33333 10.0972C5.28681 10.137 5.24902 10.1861 5.22234 10.2412C5.19567 10.2963 5.18067 10.3564 5.17831 10.4176C5.17595 10.4788 5.18626 10.5398 5.2086 10.5969C5.23095 10.6539 5.26484 10.7057 5.30815 10.749C5.35147 10.7923 5.40327 10.8262 5.4603 10.8486C5.51733 10.8709 5.57837 10.8812 5.63958 10.8789C5.70079 10.8765 5.76084 10.8615 5.81598 10.8348C5.87112 10.8082 5.92015 10.7704 5.96 10.7238L8.08 8.60385L10.1867 10.7105C10.2717 10.7833 10.3811 10.8214 10.4929 10.8171C10.6048 10.8127 10.7109 10.7664 10.79 10.6872C10.8692 10.6081 10.9155 10.502 10.9199 10.3901C10.9242 10.2782 10.8861 10.1689 10.8133 10.0838L8.71555 7.9994Z" fill="#FF004D"/>
<path d="M8 15.1109C6.59355 15.1109 5.21869 14.6938 4.04928 13.9125C2.87986 13.1311 1.96841 12.0205 1.43019 10.7211C0.891967 9.4217 0.751143 7.9919 1.02553 6.61248C1.29991 5.23306 1.97718 3.96598 2.97168 2.97147C3.96619 1.97696 5.23327 1.2997 6.61269 1.02531C7.99211 0.750929 9.42192 0.891753 10.7213 1.42998C12.0207 1.9682 13.1313 2.87965 13.9127 4.04906C14.6941 5.21848 15.1111 6.59334 15.1111 7.99979C15.1111 9.88577 14.3619 11.6945 13.0283 13.0281C11.6947 14.3617 9.88598 15.1109 8 15.1109ZM8 1.77756C6.76936 1.77756 5.56636 2.14249 4.54312 2.8262C3.51988 3.5099 2.72236 4.48168 2.25142 5.61864C1.78047 6.75561 1.65725 8.00669 1.89734 9.21368C2.13742 10.4207 2.73003 11.5294 3.60022 12.3996C4.47042 13.2698 5.57911 13.8624 6.7861 14.1024C7.9931 14.3425 9.24418 14.2193 10.3811 13.7484C11.5181 13.2774 12.4899 12.4799 13.1736 11.4567C13.8573 10.4334 14.2222 9.23042 14.2222 7.99979C14.2222 6.34955 13.5667 4.7669 12.3998 3.60001C11.2329 2.43312 9.65024 1.77756 8 1.77756Z" fill="#FF004D"/>
</svg>
