<svg width="62" height="62" viewBox="0 0 62 62" fill="none" xmlns="http://www.w3.org/2000/svg">
<path d="M32.86 27.8992C31.62 27.5892 30.38 26.9692 29.45 26.0392C28.52 25.7292 28.21 24.7992 28.21 24.1792C28.21 23.5592 28.52 22.6292 29.14 22.3192C30.07 21.6992 31 21.0792 31.93 21.3892C33.79 21.3892 35.34 22.3192 36.27 23.5592L39.06 19.8392C38.13 18.9092 37.2 18.2892 36.27 17.6692C35.34 17.0492 34.1 16.7392 32.86 16.7392V12.3992H29.14V16.7392C27.59 17.0492 26.04 17.9792 24.8 19.2192C23.56 20.7692 22.63 22.6292 22.94 24.4892C22.94 26.3492 23.56 28.2092 24.8 29.4492C26.35 30.9992 28.52 31.9292 30.38 32.8592C31.31 33.1692 32.55 33.7892 33.48 34.4092C34.1 35.0292 34.41 35.9592 34.41 36.8892C34.41 37.8192 34.1 38.7492 33.48 39.6792C32.55 40.6092 31.31 40.9192 30.38 40.9192C29.14 40.9192 27.59 40.6092 26.66 39.6792C25.73 39.0592 24.8 38.1292 24.18 37.1992L21.08 40.6092C22.01 41.8492 22.94 42.7792 24.18 43.7092C25.73 44.6392 27.59 45.5692 29.45 45.5692V49.5992H32.86V44.9492C34.72 44.6392 36.27 43.7092 37.51 42.4692C39.06 40.9192 39.99 38.4392 39.99 36.2692C39.99 34.4092 39.37 32.2392 37.82 30.9992C36.27 29.4492 34.72 28.5192 32.86 27.8992ZM31 6.19922C17.36 6.19922 6.19995 17.3592 6.19995 30.9992C6.19995 44.6392 17.36 55.7992 31 55.7992C44.64 55.7992 55.8 44.6392 55.8 30.9992C55.8 17.3592 44.64 6.19922 31 6.19922ZM31 52.3892C19.22 52.3892 9.60995 42.7792 9.60995 30.9992C9.60995 19.2192 19.22 9.60922 31 9.60922C42.78 9.60922 52.39 19.2192 52.39 30.9992C52.39 42.7792 42.78 52.3892 31 52.3892Z" fill="white"/>
</svg>
