<svg width="64" height="65" viewBox="0 0 64 65" fill="none" xmlns="http://www.w3.org/2000/svg">
<path d="M32 62.9688C48.6 62.9688 62 49.3594 62 32.5H2C2 49.3594 15.4 62.9688 32 62.9688Z" fill="#3E4347"/>
<path d="M32 2.03125C15.4 2.03125 2 15.6406 2 32.5H62C62 15.6406 48.6 2.03125 32 2.03125Z" fill="#ED4C5C"/>
<path d="M27.5 24.8828L26.2 28.9453L29.6 26.4062L33.1 28.9453L31.8 24.8828L35.2 22.3437H30.9L29.6 18.1797L28.3 22.3437H24L27.5 24.8828Z" fill="#FFE62E"/>
<path d="M48.0001 49.3555C47.5001 48.543 46.9001 47.9336 46.1001 47.2227C45.3001 46.5117 44.2001 45.6992 43.3001 44.8867L41.7001 46.7148C41.6001 46.8164 41.7001 47.0195 41.7001 47.0195C43.5001 47.3242 44.0001 47.9336 44.7001 48.543C45.7001 49.5586 46.0001 50.6758 46.7001 51.1836C47.9001 51.8945 48.8001 50.5742 48.0001 49.3555Z" fill="#FFE62E"/>
<path d="M33.8001 42.3516C32.1001 42.9609 30.2001 43.1641 28.3001 42.9609C25.8001 42.6562 23.5001 41.7422 21.6001 40.1172L19.7001 42.4531C20.5001 43.1641 21.4001 43.6719 22.2001 44.1797L21.6001 45.3984C22.6001 45.9063 23.6001 46.4141 24.7001 46.7188L25.1001 45.5C26.1001 45.8047 27.1001 46.0078 28.1001 46.1094L28.0001 47.3281C29.1001 47.4297 30.2001 47.4297 31.3001 47.3281L31.2001 46.0078C32.2001 45.9063 33.2001 45.7031 34.2001 45.3984L34.6001 46.6172C35.1001 46.4141 35.6001 46.3125 36.2001 46.0078L35.5001 43.2656L33.8001 42.3516Z" fill="#FFE62E"/>
<path d="M42.3 31.4824C41.9 34.9355 40.3 37.8809 37.9 40.0137L41.5 42.5527C42 42.0449 42.4 41.6387 42.8 41.1309L41.8 40.3184C42.5 39.5059 43 38.5918 43.5 37.7793L44.7 38.3887C45.2 37.373 45.7 36.3574 46 35.2402L44.8 34.834C45.1 33.8184 45.3 32.8027 45.4 31.7871L46.7 31.8887C46.8 30.7715 46.8 29.6543 46.7 28.5371L45.4 28.6387C45.3 27.623 45.1 26.6074 44.8 25.5918L46 25.1855C45.7 24.0684 45.3 23.0527 44.7 22.0371L43.5 22.6465C43 21.7324 42.5 20.8184 41.8 20.0059L42.8 19.1934C42.1 18.2793 41.3 17.5684 40.4 16.7559L39.6 17.7715C38.8 17.0605 38 16.5527 37.1 16.0449L37.7 14.8262C36.7 14.3184 35.7 13.8105 34.6 13.5059L34.2 14.8262C33.3 14.5215 32.3 14.3184 31.3 14.2168L31 17.2637C37.9 17.9746 43 24.373 42.3 31.4824Z" fill="#FFE62E"/>
<path d="M37.3001 41.8438C33.9001 39.4063 30.5001 36.9687 27.5001 34.125L27.7001 33.9219C30.6001 36.6641 34.1001 39.2031 37.4001 41.5391C39.1001 42.7578 40.8001 43.9766 42.4001 45.1953L43.0001 44.6875C37.4001 40.625 24.2001 31.2812 24.0001 27.9297C21.4001 33.1094 24.7001 36.1563 26.8001 37.4766C32.2001 40.625 35.8001 42.6562 41.5001 46.5156L42.3001 45.6016C40.7001 44.1797 39.0001 42.9609 37.3001 41.8438Z" fill="#FFE62E"/>
</svg>
