<svg width="32" height="32" viewBox="0 0 32 32" fill="none" xmlns="http://www.w3.org/2000/svg">
<path d="M24.25 17.0505L26.6 15.6505C27.4 15.0505 28.8 15.6505 29.7 17.0005C30.55 18.3505 30.6 19.9005 29.8 20.5005C29.75 20.5505 29.7 20.6005 29.6 20.6005L27.4 21.9005L24.25 17.0505Z" fill="#3E4347"/>
<path d="M24.55 20.499C25.4 21.849 26.6 22.499 27.45 21.899C28.25 21.299 28.25 19.749 27.35 18.399C26.5 17.049 25.1 16.449 24.25 17.049C23.5 17.599 23.9 19.549 24.55 20.499Z" fill="#62696D"/>
<path d="M25.1999 20.0498C25.6499 20.7498 26.2499 21.0998 26.6999 20.7498C27.1499 20.4498 27.0999 19.5998 26.6499 18.8998C26.1999 18.1998 25.4499 17.8498 24.9999 18.1998C24.5999 18.4998 24.7499 19.3498 25.1999 20.0498Z" fill="#3E4347"/>
<path d="M25.6 19.0008C26.05 18.7508 26.65 19.4008 26.35 19.8508L24.4 21.0508L23.8 20.0008L25.6 19.0008Z" fill="#B2C1C0"/>
<path d="M23.85 16.6992V19.3992L21.8 17.4992L23.85 16.6992Z" fill="#9C2C1B"/>
<path d="M14.25 8.30148L16.95 6.70148C17.9 6.00148 19.5 6.70148 20.5 8.25148C21.5 9.80148 21.55 11.6015 20.6 12.3015C20.55 12.3515 20.45 12.4015 20.4 12.4015L17.9 13.9015L14.25 8.30148Z" fill="#3E4347"/>
<path d="M14.55 12.2484C15.55 13.7984 16.95 14.5484 17.9 13.8484C18.85 13.1484 18.8 11.3484 17.8 9.79836C16.8 8.24836 15.2 7.54836 14.25 8.24836C13.35 8.89836 13.85 11.1484 14.55 12.2484Z" fill="#62696D"/>
<path d="M25.5499 24.4484L19.85 21.2984L18.4 22.1484L12.6 20.8484L5.44995 15.4484V12.8984L12.6 17.8984L18.4 19.9984L19.85 18.9484L25.5499 23.5484V24.4484Z" fill="#9C2C1B"/>
<path d="M27.65 22.2008L25.5499 23.5508L19.85 18.9508L18.4 20.0008L12.6 17.9008L5.44995 12.9008L7.24995 11.8508L8.44995 12.1508L12.6 9.85078L12.55 9.30078L14.2 8.30078L21.65 13.2508L23.85 16.7008L22.2999 17.4508L27.65 22.2008Z" fill="#D33B23"/>
<path d="M7.80005 7.89844V10.0984L13.1 12.6484L15.45 11.5484L9.25005 9.14844V7.89844H7.80005Z" fill="#F15744"/>
<path d="M15.45 13.4484V11.5484L13.1 12.6484L7.8 10.0984V7.89844H7.5V10.2984L13.1 14.4984L15.45 13.4484Z" fill="#9C2C1B"/>
<path d="M21.65 13.25L23.85 16.7L18.4 20L12.6 17.9L21.65 13.25Z" fill="#F15744"/>
<path d="M21.65 13.25L23.85 16.7L23.25 17.05L21 13.55L21.65 13.25Z" fill="#FFE62E"/>
<path d="M14.2499 8.30078L21.6499 13.2508L20.9999 13.5508L13.6499 8.65078L14.2499 8.30078Z" fill="#FFE62E"/>
<path d="M13.75 17.3008L19.2 19.5008L18.4 20.0008L12.6 17.9008L13.75 17.3008Z" fill="#FFE62E"/>
<path d="M6.34995 12.3516L13.75 17.3016L12.6 17.9016L5.44995 12.9016L6.34995 12.3516Z" fill="#FFE62E"/>
<path d="M13.1 14.5015C12.95 15.5515 14.55 16.9015 16.1 17.1015C18.8 17.5015 20.05 15.9515 19.25 14.3515C18.5 12.9015 15.5 13.2015 15.5 13.2015L13.1 14.5015Z" fill="#9C2C1B"/>
<path d="M2.5 14.9501L5.6 13.1001C6.7 12.3001 8.5 13.1001 9.6 14.8501C10.75 16.6001 10.8 18.6501 9.7 19.4001C9.65 19.4501 9.55 19.5001 9.45 19.5501L6.6 21.2501L2.5 14.9501Z" fill="#3E4347"/>
<path d="M2.84997 19.4516C3.99997 21.2016 5.54997 22.0516 6.64997 21.2516C7.74997 20.4516 7.64997 18.4516 6.54997 16.7016C5.39997 14.9516 3.59997 14.1516 2.54997 14.9516C1.49997 15.7016 2.04997 18.2016 2.84997 19.4516Z" fill="#62696D"/>
<path d="M3.74997 18.85C4.34997 19.8 5.09997 20.2 5.69997 19.8C6.24997 19.4 6.24997 18.3 5.64997 17.35C4.99997 16.45 4.04997 16 3.44997 16.45C2.89997 16.85 3.14997 17.9 3.74997 18.85Z" fill="#3E4347"/>
<path d="M21.75 21.2508C22.1999 21.0008 22.7999 21.6508 22.4999 22.1008L20.5499 23.3008L19.95 22.2508L21.75 21.2508Z" fill="#B2C1C0"/>
<path d="M15.75 21.6491L18.45 20.0491C19.4 19.3491 21 20.0491 22 21.5991C23 23.1491 23.05 24.9491 22.1 25.6491C22.05 25.6991 21.95 25.7491 21.9 25.7491L19.4 27.2491L15.75 21.6491Z" fill="#3E4347"/>
<path d="M16.05 25.6507C17.05 27.2007 18.45 27.9507 19.4 27.2507C20.35 26.5507 20.3 24.7507 19.3 23.2007C18.3 21.6507 16.7 20.9507 15.75 21.6507C14.85 22.3007 15.35 24.5507 16.05 25.6507Z" fill="#62696D"/>
<path d="M16.85 25.1007C17.4 25.9007 18.05 26.3007 18.55 25.9507C19.05 25.6007 19.05 24.6007 18.5 23.8007C17.95 23.0007 17.1 22.6007 16.6 23.0007C16.1 23.3507 16.3 24.3007 16.85 25.1007Z" fill="#3E4347"/>
<path d="M11.35 4.5L13.35 6.3L4.05 11.2L1 8.4L11.35 4.5Z" fill="#D33B23"/>
<path d="M13.8 14.3484C13.8 15.8484 15.6 16.5984 17 16.5984C18.45 16.5984 18.9501 15.8484 18.9501 14.3484C18.9501 12.8484 17.8001 11.6484 16.35 11.6484C14.95 11.6484 13.8 12.8484 13.8 14.3484Z" fill="#42ADE2"/>
<path d="M15.35 14.2995C15.4 13.7495 17.3 13.7495 18.75 13.6495C19.2 13.5995 19.15 15.2995 18.75 15.3495C16.45 15.5495 15.3 14.8495 15.35 14.2995Z" fill="#3E4347"/>
<path d="M30 20.4492L31 22.6492L24.45 27.0492L21.5 25.6992L27.4 22.0492L30 20.4492Z" fill="#F15744"/>
<path d="M2.40002 7.85234L5.60002 10.4023L6.50002 9.95234L3.60002 7.40234L2.40002 7.85234Z" fill="#FFE62E"/>
<path d="M9.59998 5.15156L11.75 7.15156L12.4 6.80156L10.4 4.85156L9.59998 5.15156Z" fill="#FFE62E"/>
<path d="M28.6 21.3531L29.7 23.5031L30.25 23.1531L29.25 20.9531L28.6 21.3531Z" fill="#FFE62E"/>
<path d="M22.8 24.9L25.25 26.5L25.8 26.1L23.5 24.5L22.8 24.9Z" fill="#FFE62E"/>
</svg>
