<svg width="20" height="20" viewBox="0 0 20 20" fill="none" xmlns="http://www.w3.org/2000/svg">
<path d="M14.6079 12.1721C14.6079 13.0121 14.8469 13.3471 15.4719 13.3471C16.865 13.3471 17.7519 11.5721 17.7519 8.62013C17.7519 4.10813 14.4639 1.94813 10.3589 1.94813C6.13595 1.94813 2.29495 4.78013 2.29495 10.1321C2.29495 15.2441 5.65495 18.0281 10.8149 18.0281C12.5669 18.0281 13.7429 17.8361 15.5419 17.2361L15.9279 18.8431C14.1519 19.4201 12.254 19.5871 10.7909 19.5871C4.02295 19.5871 0.397949 15.8671 0.397949 10.1311C0.397949 4.34713 4.59895 0.411133 10.3829 0.411133C16.4069 0.411133 19.5979 4.01113 19.5979 8.42713C19.5979 12.1711 18.423 15.0271 14.7269 15.0271C13.0459 15.0271 11.9429 14.3551 11.7989 12.8661C11.3669 14.5221 10.2149 15.0271 8.65395 15.0271C6.56595 15.0271 4.81395 13.4181 4.81395 10.1791C4.81395 6.91513 6.35095 4.89913 9.11095 4.89913C10.5749 4.89913 11.4869 5.47513 11.8929 6.38713L12.5899 5.11513H14.6059V12.1721H14.6079ZM11.6569 9.00413C11.6569 7.68513 10.6719 7.13213 9.85595 7.13213C8.96795 7.13213 7.98495 7.85113 7.98495 9.96413C7.98495 11.6441 8.72895 12.5801 9.85595 12.5801C10.6479 12.5801 11.6569 12.0761 11.6569 10.6841V9.00413Z" fill="#000000"/>
</svg>
