<svg width="32" height="32" viewBox="0 0 32 32" fill="none" xmlns="http://www.w3.org/2000/svg">
<path d="M12.6058 12.0004C13.4122 11.0244 14.633 10.4004 15.9994 10.4004C17.3658 10.4004 18.5866 11.0244 19.393 12.0004C19.924 12.6441 20.2609 13.4255 20.3645 14.2534C20.4682 15.0813 20.3343 15.9217 19.9785 16.6764C19.6227 17.4311 19.0596 18.0691 18.3549 18.516C17.6502 18.9628 16.833 19.2 15.9986 19.2C15.1642 19.2 14.347 18.9628 13.6424 18.516C12.9377 18.0691 12.3746 17.4311 12.0188 16.6764C11.663 15.9217 11.5291 15.0813 11.6327 14.2534C11.7364 13.4255 12.0733 12.6441 12.6042 12.0004H12.6058Z" fill="#00B1FF"/>
<path d="M21.9991 14.8C21.9991 13.7888 21.7495 12.8352 21.3079 12H27.9991C28.6356 12 29.2461 12.2529 29.6962 12.7029C30.1462 13.153 30.3991 13.7635 30.3991 14.4V15.2C30.3991 17.7392 28.4695 20.3392 25.0951 21.2544C24.7483 20.6315 24.2414 20.1126 23.6267 19.7514C23.0121 19.3902 22.312 19.1998 21.5991 19.2H20.0791C20.6856 18.6389 21.1692 17.9582 21.4997 17.201C21.8301 16.4437 22.0002 15.6262 21.9991 14.8Z" fill="#00B1FF"/>
<path d="M21.6 20.7988C21.9154 20.798 22.2279 20.8595 22.5194 20.9798C22.811 21.1001 23.0759 21.2769 23.2989 21.4999C23.522 21.7229 23.6987 21.9878 23.819 22.2794C23.9394 22.571 24.0009 22.8834 24 23.1988V23.9988C24 27.1524 21.024 30.3988 16 30.3988C10.976 30.3988 8.00001 27.1524 8.00001 23.9988V23.1988C7.99916 22.8834 8.06067 22.571 8.18098 22.2794C8.30129 21.9878 8.47804 21.7229 8.70107 21.4999C8.9241 21.2769 9.18901 21.1001 9.48057 20.9798C9.77213 20.8595 10.0846 20.798 10.4 20.7988H21.6Z" fill="#00B1FF"/>
<path d="M1.59961 15.2C1.59961 17.7392 3.52921 20.3392 6.90361 21.2544C7.25038 20.6315 7.75733 20.1126 8.37199 19.7514C8.98665 19.3902 9.68668 19.1998 10.3996 19.2H11.9196C11.3132 18.6389 10.8295 17.9582 10.499 17.201C10.1686 16.4437 9.99854 15.6262 9.99961 14.8C9.99961 13.7888 10.2492 12.8352 10.6924 12H3.99961C3.36309 12 2.75264 12.2529 2.30255 12.7029C1.85247 13.153 1.59961 13.7635 1.59961 14.4V15.2Z" fill="#00B1FF"/>
<path d="M13.9992 5.99961C13.9992 4.83266 13.5356 3.7135 12.7105 2.88834C11.8853 2.06318 10.7662 1.59961 9.59922 1.59961C8.43227 1.59961 7.31311 2.06318 6.48795 2.88834C5.66279 3.7135 5.19922 4.83266 5.19922 5.99961C5.19922 7.16656 5.66279 8.28572 6.48795 9.11088C7.31311 9.93604 8.43227 10.3996 9.59922 10.3996C10.7662 10.3996 11.8853 9.93604 12.7105 9.11088C13.5356 8.28572 13.9992 7.16656 13.9992 5.99961Z" fill="#00B1FF"/>
<path d="M26.8 5.99961C26.8 4.83266 26.3364 3.7135 25.5113 2.88834C24.6861 2.06318 23.567 1.59961 22.4 1.59961C21.233 1.59961 20.1139 2.06318 19.2887 2.88834C18.4636 3.7135 18 4.83266 18 5.99961C18 7.16656 18.4636 8.28572 19.2887 9.11088C20.1139 9.93604 21.233 10.3996 22.4 10.3996C23.567 10.3996 24.6861 9.93604 25.5113 9.11088C26.3364 8.28572 26.8 7.16656 26.8 5.99961Z" fill="#00B1FF"/>
</svg>
