<svg width="32" height="32" viewBox="0 0 32 32" fill="none" xmlns="http://www.w3.org/2000/svg">
<path d="M18.8938 6.35781C18.5 6.28281 16.8063 5.61406 16.8063 4.90156C16.8063 4.20781 16.1938 4.17031 16.0375 4.17031C15.825 4.17031 15.7188 4.02031 15.7188 3.80781C15.7188 1.10156 14.0063 1.85781 13.9125 1.85781C13.7375 1.85781 13.9125 1.48281 13.7625 1.48281C13.7125 1.48281 13.6688 1.47656 13.625 1.47656C13.2 1.92656 12.9563 2.55156 12.9563 3.33281L12.9625 3.76406V3.77031C12.9563 3.85156 12.6813 4.69531 12.5063 5.06406C12.3063 5.47656 12.5688 5.56406 12.9938 5.57656L13.0063 6.27656C13.0063 6.40781 13.375 6.38906 13.5 6.32031C13.5938 6.27031 13.7125 6.30781 13.7625 6.40156C13.8125 6.49531 13.775 6.61406 13.6813 6.66406C13.575 6.72031 13.3625 6.75781 13.2125 6.78281C13.1313 6.79531 13.075 6.88281 13.0938 6.96406C13.3375 7.78281 14.0563 8.12031 14.9938 8.23906V9.22656C14.9938 9.55781 15.5313 9.82656 16.1938 9.82656C16.8563 9.82656 17.3938 9.55781 17.3938 9.22656C17.3938 9.18906 17.3875 9.15156 17.375 9.12031V8.03281C18.1188 7.67656 18.5938 7.03906 18.8938 6.35781Z" fill="#FFD3B6"/>
<path d="M14.1812 4.0625C14.1687 3.91875 14.05 3.8125 13.9062 3.8125C13.7625 3.8125 13.6438 3.925 13.6313 4.0625H13.625V4.45C13.625 4.6 13.75 4.725 13.9 4.725C14.05 4.725 14.175 4.6 14.175 4.45L14.1812 4.0625Z" fill="#2B3B47"/>
<path d="M13.85 4.07422C13.85 4.03672 13.8187 4.01172 13.7812 4.01172C13.7437 4.01172 13.7187 4.03672 13.7125 4.07422V4.16797C13.7125 4.20547 13.7437 4.23672 13.7812 4.23672C13.8187 4.23672 13.85 4.20547 13.85 4.16797V4.07422Z" fill="white"/>
<path d="M13.4563 3.21797C13.4563 3.21797 13.4688 3.21797 13.5001 3.21172C13.5251 3.21172 13.5626 3.20547 13.6063 3.20547C13.6501 3.20547 13.7001 3.19922 13.7563 3.19922C13.8126 3.19922 13.8751 3.20547 13.9313 3.21172C13.9938 3.21797 14.0501 3.23047 14.1126 3.24297C14.1438 3.24922 14.1688 3.26172 14.1938 3.26797C14.2188 3.27422 14.2438 3.28672 14.2688 3.29922C14.2938 3.30547 14.3126 3.32422 14.3313 3.33672C14.3501 3.34922 14.3626 3.36172 14.3751 3.36797C14.4001 3.38672 14.4126 3.39922 14.4126 3.39922C14.4501 3.43672 14.4563 3.49297 14.4188 3.53672C14.3876 3.57422 14.3313 3.58047 14.2938 3.54922L14.2751 3.53672C14.2751 3.53672 14.2688 3.53047 14.2501 3.51797C14.2438 3.51172 14.2376 3.50547 14.2251 3.49922C14.2126 3.49297 14.2001 3.48672 14.1813 3.48047C14.1626 3.47422 14.1501 3.46797 14.1251 3.46172C14.1063 3.45547 14.0813 3.44922 14.0626 3.44922C14.0188 3.44297 13.9688 3.43672 13.9126 3.43672C13.8626 3.43672 13.8063 3.43672 13.7563 3.44297C13.7063 3.44922 13.6626 3.44922 13.6188 3.45547C13.5813 3.46172 13.5438 3.46797 13.5251 3.46797C13.5001 3.47422 13.4876 3.47422 13.4876 3.47422H13.4813C13.4063 3.48672 13.3376 3.44297 13.3251 3.36797C13.3126 3.29297 13.3563 3.22422 13.4313 3.21172C13.4438 3.21797 13.4501 3.21797 13.4563 3.21797Z" fill="#E5AB83"/>
<path d="M16.15 5.71328C16.0625 5.71328 16 5.64453 16 5.56328C16 5.48203 16.0687 5.41328 16.15 5.41328C16.425 5.41328 16.65 5.18828 16.65 4.91328C16.65 4.63828 16.425 4.41328 16.15 4.41328C16.0625 4.41328 16 4.34453 16 4.26328C16 4.18203 16.0687 4.11328 16.15 4.11328C16.5937 4.11328 16.9562 4.47578 16.9562 4.91953C16.9562 5.36328 16.5937 5.71328 16.15 5.71328Z" fill="#EDC0A2"/>
<path d="M8.09998 29.7922C7.84373 29.7922 7.58122 29.711 7.35622 29.5422C6.93747 29.2422 6.74372 28.7422 6.85622 28.2485C6.86872 28.1797 6.93747 28.1422 7.00622 28.1547C7.07497 28.1672 7.11247 28.236 7.09997 28.3047C7.01247 28.6985 7.16247 29.0985 7.49997 29.3422C7.83747 29.586 8.26247 29.6047 8.60622 29.3985C8.66247 29.361 8.74372 29.3797 8.77497 29.4422C8.81247 29.4985 8.79372 29.5797 8.73122 29.611C8.53747 29.7297 8.31873 29.7922 8.09998 29.7922Z" fill="#2B3B47"/>
<path d="M8.7312 29.6119C8.5312 29.7307 8.31245 29.7869 8.0937 29.7869C7.83745 29.7869 7.57495 29.7057 7.34995 29.5369C6.9312 29.2369 6.73745 28.7369 6.84995 28.2432C6.86245 28.1744 6.9312 28.1369 6.99995 28.1494C7.0687 28.1619 7.1062 28.2307 7.0937 28.2994C7.04995 28.4994 7.0687 28.6994 7.13745 28.8807C7.39995 28.8432 7.6187 28.7432 7.4937 28.4744C7.02495 27.4744 6.99995 28.4244 5.93745 28.4494C5.6937 28.4494 5.34995 28.4119 4.84995 28.3057C4.01245 28.1307 3.4562 27.6432 3.13745 28.1619C3.16245 28.1869 3.2187 28.2307 3.3062 28.3057C3.36245 28.3557 3.4312 28.4119 3.51245 28.4807C3.5937 28.5494 3.68745 28.6182 3.78745 28.6932C3.83745 28.7307 3.8937 28.7744 3.94995 28.8119C4.0062 28.8494 4.0687 28.8932 4.12495 28.9369C4.2437 29.0244 4.37495 29.1119 4.5062 29.2057L4.5562 29.2432L4.56245 29.2494L4.57495 29.2557L4.59995 29.2744C4.63745 29.2994 4.6687 29.3182 4.7062 29.3432C4.77495 29.3869 4.84995 29.4369 4.9187 29.4807C5.06245 29.5744 5.2062 29.6682 5.3562 29.7682C5.49995 29.8619 5.64995 29.9432 5.79995 30.0244C5.9437 30.1057 6.0937 30.1932 6.23745 30.2807C6.3812 30.3682 6.5187 30.4432 6.64995 30.5244C6.77495 30.6057 6.8937 30.6869 7.0062 30.7619C7.4437 31.0557 7.73745 31.2494 7.73745 31.2494C7.9312 30.9807 8.2687 30.5119 8.4562 30.2494C8.63745 30.0057 8.7687 29.7682 8.76245 29.5807C8.74995 29.6057 8.7437 29.6057 8.7312 29.6119Z" fill="#76DFFF"/>
<path d="M3.11879 28.1562C3.11879 28.1562 3.18754 28.2125 3.30004 28.3125C3.35629 28.3625 3.42504 28.4187 3.50629 28.4875C3.58754 28.5562 3.68129 28.625 3.78129 28.7C3.83129 28.7375 3.88754 28.7813 3.94379 28.8188C4.00004 28.8563 4.06254 28.9 4.11879 28.9438C4.23754 29.0313 4.36879 29.1187 4.50004 29.2125L4.55004 29.25L4.55629 29.2563H4.56254C4.56254 29.2563 4.55629 29.25 4.56254 29.2563L4.57504 29.2625L4.60004 29.2812C4.63754 29.3062 4.66879 29.325 4.70629 29.35C4.77504 29.3938 4.85004 29.4437 4.91879 29.4875C5.06254 29.5812 5.20629 29.675 5.35629 29.775C5.50004 29.8687 5.65004 29.95 5.80004 30.0312C5.94379 30.1125 6.09379 30.2 6.23754 30.2875C6.38129 30.375 6.51879 30.45 6.65004 30.5312C6.77504 30.6125 6.89379 30.6937 7.00629 30.7687C7.44379 31.0625 7.73754 31.2563 7.73754 31.2563L7.44379 31.6562C7.44379 31.6562 7.16254 31.45 6.74379 31.15C6.63754 31.075 6.52504 30.9938 6.40629 30.9062C6.28754 30.8187 6.15004 30.7375 6.01879 30.65C5.88129 30.5625 5.74379 30.475 5.59379 30.3813C5.44379 30.2875 5.29379 30.1937 5.15004 30.0938C5.00629 29.9937 4.86879 29.8875 4.72504 29.7875L4.51879 29.6375C4.48754 29.6125 4.45004 29.5875 4.41879 29.5625L4.36254 29.525L4.31254 29.4875C4.18129 29.3875 4.05629 29.2875 3.93754 29.2C3.87504 29.1563 3.81879 29.1063 3.76254 29.0688C3.70629 29.025 3.65629 28.9812 3.60004 28.9375C3.50004 28.85 3.40004 28.7812 3.32504 28.7062C3.24379 28.6312 3.17504 28.5687 3.11879 28.5187C3.00629 28.4125 2.94379 28.3563 2.94379 28.3563L3.11879 28.1562Z" fill="#E5E5E5"/>
<path d="M6.2437 28.9391C6.31964 28.9391 6.3812 28.8775 6.3812 28.8016C6.3812 28.7256 6.31964 28.6641 6.2437 28.6641C6.16776 28.6641 6.1062 28.7256 6.1062 28.8016C6.1062 28.8775 6.16776 28.9391 6.2437 28.9391Z" fill="#00B1FF"/>
<path d="M6.6688 28.9484C6.75164 28.9484 6.8188 28.8813 6.8188 28.7984C6.8188 28.7156 6.75164 28.6484 6.6688 28.6484C6.58596 28.6484 6.5188 28.7156 6.5188 28.7984C6.5188 28.8813 6.58596 28.9484 6.6688 28.9484Z" fill="#00B1FF"/>
<path d="M6.66873 28.8697C6.63748 28.8697 6.60623 28.8447 6.60623 28.8072C6.59998 28.6697 6.54998 28.3885 6.43123 28.376C6.39373 28.3697 6.36873 28.3385 6.37498 28.3072C6.38123 28.2697 6.41248 28.2447 6.44373 28.251C6.70623 28.276 6.73748 28.751 6.73748 28.8072C6.73748 28.8385 6.70623 28.8697 6.66873 28.8697Z" fill="#2B3B47"/>
<path d="M6.24374 28.8697C6.21249 28.8697 6.18124 28.8447 6.18124 28.8072C6.17499 28.6697 6.12499 28.3885 6.00624 28.376C5.96874 28.3697 5.94374 28.3385 5.94999 28.3072C5.95624 28.2697 5.98749 28.2447 6.01874 28.251C6.28124 28.276 6.31249 28.751 6.31249 28.8072C6.31249 28.8385 6.28124 28.8635 6.24374 28.8697Z" fill="#2B3B47"/>
<path d="M6.9187 30.726C6.9437 30.7447 6.97495 30.7635 6.99995 30.7822C7.43745 31.076 7.7312 31.2697 7.7312 31.2697C7.92495 31.001 8.26245 30.5322 8.44995 30.2697C8.46245 30.251 8.4812 30.2322 8.4937 30.2072C7.92495 30.026 7.28745 30.2197 6.9187 30.726Z" fill="#00B1FF"/>
<path d="M15.8125 12.8065C15.7312 12.6628 15.675 12.5065 15.6437 12.3503C15.5125 12.4878 15.3812 12.6315 15.25 12.769L14.3187 13.769L14.0125 14.1003L11.0687 11.6815C11.1125 11.569 11.1312 11.444 11.1125 11.3128L11.075 11.0503C11.0625 10.9628 11.05 10.8753 11.0312 10.7878C11.0187 10.7003 11 10.6128 10.9875 10.5253C10.975 10.4378 10.9562 10.3503 10.9375 10.2628C10.8687 9.93152 10.5625 9.69402 10.2187 9.71277C10.1937 9.71277 10.1687 9.71902 10.1437 9.71902C9.89375 9.46902 9.4875 9.45652 9.21875 9.69402C9.08125 9.81902 8.9375 9.93777 8.8 10.069L8.7375 10.1253C8.4875 10.3565 8.4625 10.744 8.6875 11.0065C8.85625 11.2065 9.03125 11.4065 9.2125 11.594C9.25625 11.644 9.30625 11.6878 9.35 11.7378C9.39375 11.7878 9.44375 11.8315 9.4875 11.8815C9.58125 11.9753 9.68125 12.069 9.78125 12.1565C9.81875 12.1878 9.8625 12.2128 9.90625 12.2315L13.4312 16.1503L13.4375 16.1565C13.775 16.5253 14.35 16.5503 14.7187 16.2065L14.825 16.1065L15.7562 15.119L16.6937 14.1378L17.1812 13.6315C16.6312 13.6253 16.1 13.3253 15.8125 12.8065Z" fill="#FFD3B6"/>
<path d="M22.3687 12.282L22.2625 12.2195L20 11.0195L19.4812 10.7383L19.6437 12.8383L20.8125 13.4445L19.9249 16.432L20.1 18.6695C20.1062 18.6945 20.1062 18.7195 20.1062 18.7383C20.1062 18.8945 20.025 19.0445 19.8812 19.182L20.0499 19.607C20.1499 19.5383 20.2375 19.4383 20.2937 19.3133L20.8437 18.032C20.8812 17.9383 20.9062 17.8258 20.9062 17.7195C20.9062 17.5883 20.875 17.4633 20.8187 17.357L22.6812 13.3008C22.8499 12.9383 22.7187 12.4945 22.3687 12.282Z" fill="#FFD3B6"/>
<path d="M11.4063 22.6641C11.35 22.7328 11.3 22.8078 11.2438 22.8766L10.8875 23.3641L10.875 23.3766L10.8688 23.3828V23.3891L10.875 23.3828L10.85 23.4141L10.8063 23.4766L10.7125 23.6016L10.5313 23.8453C10.4063 24.0078 10.2875 24.1703 10.1688 24.3391C10.05 24.5016 9.93129 24.6641 9.81254 24.8328C9.70004 24.9953 9.58129 25.1641 9.46879 25.3266C9.35629 25.4891 9.25004 25.6516 9.14379 25.8141C8.93129 26.1328 8.72504 26.4453 8.53754 26.7516C8.44379 26.9016 8.35004 27.0516 8.26879 27.1891C8.18129 27.3328 8.10004 27.4703 8.01879 27.6078C7.93754 27.7391 7.86254 27.8703 7.79379 27.9953C7.72504 28.1203 7.65629 28.2391 7.59379 28.3516C7.53129 28.4641 7.47504 28.5703 7.42504 28.6641C7.37504 28.7641 7.32504 28.8516 7.28754 28.9328C7.26254 28.9766 7.24379 29.0203 7.22504 29.0641C7.29379 29.1703 7.38754 29.2703 7.49379 29.3516C7.78129 29.5578 8.13754 29.6078 8.45004 29.4828C8.50629 29.4203 8.56879 29.3641 8.63754 29.2953C8.81254 29.1203 9.01254 28.9203 9.22504 28.7016C9.65004 28.2641 10.1438 27.7516 10.675 27.2078C11.2 26.6578 11.7563 26.0641 12.3188 25.4766C12.4625 25.3266 12.6063 25.1766 12.75 25.0203C12.8875 24.8703 13.0188 24.7203 13.1563 24.5703C13.2 24.5203 13.2438 24.4766 13.2813 24.4328L11.4063 22.6641Z" fill="#FFD3B6"/>
<path d="M5.5312 29.5766C5.78745 29.7391 6.07495 29.8141 6.3562 29.8141C6.68745 29.8141 7.0187 29.7078 7.2937 29.5016C7.22495 29.4453 7.1687 29.3891 7.11245 29.3266C6.6687 29.6391 6.06245 29.6516 5.59995 29.3266C5.6562 29.0266 5.6187 28.7141 5.49995 28.4266C5.4062 28.4141 5.31245 28.4016 5.19995 28.3828C5.42495 28.7766 5.43745 29.2766 5.2062 29.6828C5.2562 29.7141 5.3062 29.7453 5.3562 29.7828C5.37495 29.7953 5.3937 29.8078 5.4187 29.8203C5.46245 29.7391 5.49995 29.6578 5.5312 29.5766Z" fill="white"/>
<path d="M16.6875 0C15.3438 0 13.4813 0.30625 13.4188 0.35625C13.3563 0.40625 13.5438 0.7875 13.4813 0.84375C13.3563 0.9625 13.2375 1.09375 13.1125 1.24375C13 1.38125 13.175 1.4625 13.75 1.48125C13.9 1.4875 13.725 1.85625 13.9 1.85625C13.9938 1.85625 15.7063 1.1 15.7063 3.80625C15.7063 4.01875 15.8063 4.15625 16.0063 4.16875C16.0313 4.125 16.0813 4.09375 16.1375 4.09375C16.5813 4.09375 16.9438 4.45625 16.9438 4.9C16.9438 5.00625 16.925 5.10625 16.8875 5.2C17.2938 5.86875 18.9 6.41875 18.9625 6.35625C19.4125 5.875 19.8563 4.63125 19.8563 3.39375C19.8688 2.1625 19.0188 0 16.6875 0Z" fill="#68442A"/>
<path d="M26.5875 25.5359C26.675 25.2547 26.9062 25.3234 27.1187 25.4672C27.1812 25.2922 27.2 25.0922 27.1562 24.8922C27.0687 24.4859 26.7687 24.1859 26.3687 24.1109C26.325 24.1047 26.2937 24.0734 26.2812 24.0359L21.5937 24.5172L21.2999 23.8984C21.2937 23.8984 21.2875 23.9047 21.2875 23.9047L18.8562 24.7797L19.6375 26.4484L19.7125 26.6109C19.925 27.0672 20.4375 27.3172 20.9437 27.1859L26.5375 25.7297C26.5437 25.6797 26.5624 25.6109 26.5875 25.5359Z" fill="#FFD3B6"/>
<path d="M29.5937 28.4625C29.5875 28.3875 29.5687 28.3 29.5562 28.1938C29.5437 28.0875 29.5187 27.975 29.4937 27.85C29.4812 27.7875 29.4687 27.7188 29.4562 27.65C29.4437 27.5813 29.425 27.5125 29.4062 27.4375C29.375 27.2938 29.3375 27.1375 29.3 26.9813L29.2875 26.9188V26.9125L29.2812 26.9L29.275 26.8688C29.2625 26.8312 29.2562 26.7875 29.2437 26.75C29.225 26.6688 29.2 26.5875 29.1812 26.5063L29.05 26C29 25.8313 28.9437 25.675 28.8937 25.5125C28.8437 25.3563 28.7875 25.1875 28.7375 25.0313C28.6875 24.875 28.6375 24.7188 28.6 24.575C28.5625 24.4313 28.525 24.2875 28.4937 24.1625C28.3625 23.65 28.275 23.3125 28.275 23.3125C27.95 23.3813 27.3875 23.5063 27.075 23.575C26.775 23.6375 26.525 23.725 26.4 23.8687H26.425C26.9187 23.9625 27.3 24.3375 27.4062 24.8438C27.5187 25.35 27.325 25.8438 26.9125 26.1375C26.8937 26.15 26.8625 26.1625 26.8437 26.1625C26.8062 26.1625 26.7687 26.1437 26.7437 26.1125C26.7062 26.0562 26.7187 25.9813 26.775 25.9375C26.9437 25.8188 27.0625 25.6563 27.1312 25.475C26.9125 25.325 26.6812 25.2563 26.5937 25.5438C26.275 26.6 26.925 25.9063 27.7312 26.6C27.9125 26.7625 28.1437 27.0187 28.45 27.4313C28.9625 28.1188 29.0437 28.8563 29.6312 28.6875C29.6187 28.65 29.6062 28.575 29.5937 28.4625Z" fill="#76DFFF"/>
<path d="M29.625 28.7008C29.625 28.7008 29.6125 28.6133 29.5937 28.4633C29.5875 28.3883 29.5687 28.3008 29.5562 28.1945C29.5437 28.0883 29.5187 27.9758 29.4937 27.8508C29.4812 27.7883 29.4687 27.7195 29.4562 27.6508C29.4437 27.582 29.425 27.5133 29.4062 27.4383C29.375 27.2945 29.3375 27.1383 29.3 26.982L29.2875 26.9195V26.907V26.9133L29.2812 26.9008L29.275 26.8695C29.2625 26.832 29.2562 26.7883 29.2437 26.7508C29.225 26.6695 29.2 26.5883 29.1812 26.507L29.05 26.0008C29 25.832 28.9437 25.6758 28.8937 25.5133C28.8437 25.357 28.7875 25.1883 28.7375 25.032C28.6875 24.8758 28.6375 24.7195 28.6 24.5758C28.5625 24.432 28.525 24.2883 28.4937 24.1633C28.3625 23.6508 28.275 23.3133 28.275 23.3133L28.7625 23.207C28.7625 23.207 28.8375 23.5445 28.9437 24.0508C28.9687 24.1758 29 24.3133 29.0312 24.4633C29.0625 24.607 29.1062 24.757 29.15 24.9133C29.1937 25.0695 29.2312 25.2258 29.2812 25.4008C29.325 25.5695 29.3812 25.7383 29.425 25.9133L29.5375 26.4195C29.5562 26.5008 29.575 26.5883 29.5937 26.6695C29.6 26.7133 29.6125 26.7508 29.6187 26.7945L29.6312 26.8633L29.6437 26.9258C29.675 27.0883 29.7062 27.2445 29.7312 27.3945C29.7437 27.4695 29.7562 27.5383 29.7687 27.6133C29.7812 27.682 29.7875 27.7508 29.8 27.8195C29.8187 27.9508 29.8437 28.0695 29.85 28.1758C29.8625 28.282 29.875 28.3758 29.8812 28.4508C29.8937 28.6008 29.9 28.6883 29.9 28.6883L29.625 28.7008Z" fill="#E5E5E5"/>
<path d="M27.7313 26.275C27.8072 26.275 27.8687 26.2134 27.8687 26.1375C27.8687 26.0616 27.8072 26 27.7313 26C27.6553 26 27.5938 26.0616 27.5938 26.1375C27.5938 26.2134 27.6553 26.275 27.7313 26.275Z" fill="#00B1FF"/>
<path d="M27.4125 25.9992C27.4953 25.9992 27.5625 25.9321 27.5625 25.8492C27.5625 25.7664 27.4953 25.6992 27.4125 25.6992C27.3296 25.6992 27.2625 25.7664 27.2625 25.8492C27.2625 25.9321 27.3296 25.9992 27.4125 25.9992Z" fill="#00B1FF"/>
<path d="M27.2563 26.4425C27.2375 26.4425 27.2188 26.4362 27.2063 26.4237C27.025 26.23 27.325 25.855 27.3563 25.8112C27.3813 25.7862 27.4188 25.78 27.45 25.805C27.475 25.83 27.4813 25.8675 27.4563 25.8987C27.3688 26.005 27.2188 26.2487 27.3 26.3425C27.325 26.3675 27.325 26.4112 27.2938 26.4362C27.2875 26.4362 27.275 26.4425 27.2563 26.4425Z" fill="#2B3B47"/>
<path d="M27.575 26.7237C27.5563 26.7237 27.5375 26.7175 27.525 26.705C27.3438 26.5112 27.6438 26.1362 27.675 26.0925C27.7 26.0675 27.7375 26.0612 27.7688 26.0862C27.8 26.1112 27.8 26.1487 27.775 26.18C27.6875 26.2862 27.5375 26.53 27.6188 26.6237C27.6438 26.6487 27.6438 26.6925 27.6125 26.7175C27.6063 26.7175 27.5875 26.7237 27.575 26.7237Z" fill="#2B3B47"/>
<path d="M26.8375 26.1607C26.8 26.1607 26.7625 26.142 26.7375 26.1107C26.7 26.0545 26.7125 25.9795 26.7688 25.9357C27.1 25.6982 27.25 25.3045 27.1625 24.8982C27.075 24.492 26.775 24.192 26.375 24.117C26.3063 24.1045 26.2625 24.042 26.275 23.9732C26.2875 23.9045 26.3563 23.8607 26.4188 23.8732C26.9125 23.967 27.2938 24.342 27.4 24.8482C27.5125 25.3545 27.3188 25.8482 26.9063 26.142C26.8875 26.1482 26.8625 26.1607 26.8375 26.1607Z" fill="#2B3B47"/>
<path d="M28.5187 24.2547L28.4437 23.2734C28.2062 23.3234 27.45 23.4859 27.0687 23.5734L26.9937 23.5922C27.2937 24.0984 27.9 24.3859 28.5187 24.2547Z" fill="#00B1FF"/>
<path d="M29.0438 25.9992C29.0375 25.9742 29.0313 25.9555 29.025 25.9305C28.9375 25.9617 28.8563 25.993 28.775 26.0367C28.5938 25.4055 28.0438 24.9742 27.4125 24.918C27.425 25.0055 27.4313 25.0867 27.4313 25.168C27.625 25.193 27.8188 25.2555 27.9875 25.368C28.2813 25.5555 28.4813 25.843 28.5563 26.1805C28.3125 26.368 28.1313 26.6242 28.0313 26.918C28.0938 26.9867 28.1563 27.0617 28.225 27.1492C28.3188 26.7055 28.6438 26.3242 29.0938 26.1742C29.075 26.1117 29.0563 26.0555 29.0438 25.9992Z" fill="white"/>
<path d="M21.525 23.3734L19.8813 19.1797C19.3438 19.6984 17.9 20.0672 16.2 20.0672C14.7875 20.0672 13.9063 19.8109 13.4625 19.4297L11.1688 21.8797C11.0125 22.0422 11.0188 22.3047 11.1875 22.4609L13.4375 24.5797C13.6 24.7359 13.8625 24.7297 14.0188 24.5609L15.9125 22.5234C16.1188 22.3047 16.4875 22.3734 16.5938 22.6547L17.4563 24.8609C17.5375 25.0672 17.7688 25.1734 17.9813 25.0984L21.2813 23.9109C21.5 23.8297 21.6125 23.5859 21.525 23.3734Z" fill="#00B1FF"/>
<path d="M20.1 18.6609L19.4688 10.5984C19.4688 9.69219 18.6 8.92344 17.3813 8.61719V9.10469C17.3938 9.14219 17.4 9.17344 17.4 9.21094C17.4 9.54219 16.8625 9.81094 16.2 9.81094C15.5375 9.81094 15 9.54219 15 9.21094V8.66094C14.1 8.99219 13.7563 9.73594 13.7563 10.5984L13.5125 13.6859L14.0063 14.0922L14.3125 13.7609L15.2437 12.7609C15.375 12.6234 15.5062 12.4797 15.6375 12.3422C15.6687 12.4984 15.725 12.6484 15.8062 12.7984C16.0937 13.3172 16.625 13.6109 17.1812 13.6234L16.6938 14.1297L15.7563 15.1109L14.825 16.0984L14.7188 16.1984C14.35 16.5359 13.775 16.5172 13.4375 16.1484L13.4312 16.1422L13.3375 16.0359L13.1375 18.5922C13.1312 18.6359 13.125 18.6797 13.125 18.7234C13.125 19.4609 14.05 20.0547 16.2062 20.0547C18.3625 20.0547 20.1125 19.4609 20.1125 18.7234C20.1062 18.7047 20.1063 18.6859 20.1 18.6609Z" fill="#597B91"/>
</svg>
