<svg width="60" height="64" viewBox="0 0 60 64" fill="none" xmlns="http://www.w3.org/2000/svg">
<path d="M57.3598 33.128C57.3598 33.3462 57.2785 33.5554 57.1339 33.7096C56.9893 33.8639 56.7932 33.9505 56.5887 33.9505H47.7899C47.5854 33.9505 47.3893 33.8639 47.2446 33.7096C47.1 33.5554 47.0188 33.3462 47.0188 33.128V26.0139C47.0188 25.7958 47.1 25.5866 47.2446 25.4323C47.3893 25.2781 47.5854 25.1914 47.7899 25.1914H56.5887C56.6899 25.1914 56.7902 25.2127 56.8838 25.254C56.9773 25.2953 57.0623 25.3559 57.1339 25.4323C57.2055 25.5087 57.2623 25.5994 57.3011 25.6991C57.3398 25.7989 57.3598 25.9059 57.3598 26.0139V33.128Z" fill="#8E7B70"/>
<path d="M53.277 30.4504C53.277 30.5824 53.2278 30.709 53.1404 30.8023C53.0529 30.8956 52.9342 30.9481 52.8105 30.9481H47.4861C47.3623 30.9481 47.2437 30.8956 47.1562 30.8023C47.0687 30.709 47.0195 30.5824 47.0195 30.4504V24.7711C47.0195 24.6391 47.0687 24.5125 47.1562 24.4192C47.2437 24.3259 47.3623 24.2734 47.4861 24.2734H52.8105C52.9342 24.2734 53.0529 24.3259 53.1404 24.4192C53.2278 24.5125 53.277 24.6391 53.277 24.7711V30.4504Z" fill="#597B91"/>
<path d="M14.1574 36.6045C14.1344 36.6045 14.112 36.5973 14.0929 36.5837C14.0738 36.5701 14.0589 36.5508 14.0501 36.5282C14.0413 36.5056 14.039 36.4807 14.0435 36.4567C14.048 36.4326 14.059 36.4106 14.0752 36.3933L19.61 30.4894C19.6318 30.4662 19.6613 30.4531 19.6921 30.4531C19.7229 30.4531 19.7524 30.4662 19.7742 30.4894C19.796 30.5126 19.8082 30.5441 19.8082 30.577C19.8082 30.6098 19.796 30.6413 19.7742 30.6645L14.2394 36.5683C14.2287 36.5798 14.2159 36.589 14.2018 36.5952C14.1877 36.6014 14.1726 36.6046 14.1574 36.6045Z" fill="#2B3B47"/>
<path d="M20.8385 33.6537H13.011C12.9803 33.6537 12.9508 33.6407 12.929 33.6175C12.9072 33.5943 12.895 33.5628 12.895 33.53C12.895 33.4972 12.9072 33.4657 12.929 33.4425C12.9508 33.4193 12.9803 33.4062 13.011 33.4062H20.8385C20.8692 33.4062 20.8987 33.4193 20.9205 33.4425C20.9422 33.4657 20.9545 33.4972 20.9545 33.53C20.9545 33.5628 20.9422 33.5943 20.9205 33.6175C20.8987 33.6407 20.8692 33.6537 20.8385 33.6537Z" fill="#2B3B47"/>
<path d="M16.9246 28.1953C14.1671 28.1953 11.9238 30.5882 11.9238 33.5294C11.9238 36.4707 14.1671 38.8636 16.9246 38.8636C19.682 38.8636 21.9253 36.4707 21.9253 33.5294C21.9252 30.5882 19.6819 28.1953 16.9246 28.1953ZM19.5142 33.5294C19.5151 34.2194 19.2729 34.8845 18.8358 35.3931L17.0406 33.4782V30.7703C18.417 30.8351 19.5142 32.0454 19.5142 33.5294ZM17.0406 33.8284L18.6716 35.5682C18.2243 36.0055 17.6468 36.2606 17.0406 36.2887V33.8284ZM16.8084 33.2304L15.1774 31.4907C15.6247 31.0534 16.2022 30.7983 16.8084 30.7702V33.2304ZM14.3348 33.5294C14.334 32.8395 14.5761 32.1744 15.0132 31.6658L16.8084 33.5807V36.2886C15.4321 36.2238 14.3348 35.0134 14.3348 33.5294Z" fill="#2B3B47"/>
<path d="M16.9243 34.5406C17.4486 34.5406 17.8735 34.0873 17.8735 33.5281C17.8735 32.9689 17.4486 32.5156 16.9243 32.5156C16.4001 32.5156 15.9751 32.9689 15.9751 33.5281C15.9751 34.0873 16.4001 34.5406 16.9243 34.5406Z" fill="#FF473E"/>
<path d="M49.746 32.6016H30.0342L29.0779 36.8339C29.0779 36.8339 30.1677 37.8524 35.6195 37.8524H49.7461V32.6016H49.746Z" fill="#597B91"/>
<path d="M59.1296 24.203H55.5698V23.684C55.5698 23.5384 55.5156 23.3989 55.4192 23.296C55.3227 23.193 55.1918 23.1352 55.0554 23.1352H49.8268C49.6904 23.1352 49.5595 23.193 49.4631 23.296C49.3666 23.3989 49.3124 23.5384 49.3124 23.684V26.6855C42.5989 23.1045 32.9623 22.4141 32.9623 23.4309C32.9623 24.7757 34.1409 27.0667 32.6802 28.5165H26.2697C25.2323 28.5165 24.3411 29.1409 23.8793 30.05C22.2722 30.1355 20.08 30.184 17.0026 30.184C7.6943 30.184 2.77418 33.7505 2.77418 33.7505V34.9464H0.971953C0.907649 34.9464 0.845978 34.9736 0.800507 35.0221C0.755037 35.0706 0.729492 35.1364 0.729492 35.205V36.9461C0.729492 37.089 0.838008 37.2047 0.971953 37.2047H4.52086C4.58515 37.2047 4.64681 37.1774 4.69227 37.1289C4.73773 37.0805 4.76329 37.0147 4.76332 36.9461V35.0856H21.3907C26.0448 35.0856 27.6405 37.317 33.2255 37.317C33.5541 37.317 37.9363 37.2086 39.1428 36.9767C41.7245 36.4802 40.3175 34.9122 46.8562 34.9122L49.389 34.9621C49.4808 35.124 49.6457 35.2332 49.8359 35.2332H59.1295C59.1983 35.2332 59.2664 35.2188 59.3299 35.1907C59.3934 35.1627 59.4511 35.1215 59.4998 35.0697C59.5484 35.0178 59.587 34.9562 59.6133 34.8885C59.6396 34.8207 59.6531 34.7481 59.6531 34.6747V24.7615C59.6531 24.6881 59.6396 24.6155 59.6133 24.5478C59.587 24.48 59.5485 24.4184 59.4998 24.3666C59.4512 24.3147 59.3935 24.2736 59.33 24.2455C59.2665 24.2174 59.1984 24.203 59.1296 24.203Z" fill="#BFBCAF"/>
<path d="M14.7205 35.236C14.7205 37.5417 12.9683 39.4107 10.8068 39.4107C8.64525 39.4107 6.89307 37.5417 6.89307 35.236C6.89307 32.9304 8.64525 31.0614 10.8068 31.0614C12.9683 31.0614 14.7205 32.9305 14.7205 35.236ZM49.312 30.5977C46.9104 30.5977 44.9634 32.6744 44.9634 35.2362C44.9634 37.7979 46.9104 39.8747 49.312 39.8747C51.7137 39.8747 53.6606 37.7979 53.6606 35.2362C53.6606 32.6743 51.7137 30.5977 49.312 30.5977Z" fill="white"/>
<path d="M8.2051 38.3627L7.87369 38.0092L13.4086 32.1055L13.74 32.459L8.2051 38.3627ZM14.7205 34.984H6.89307V35.484H14.7205V34.984Z" fill="#597B91"/>
<path d="M26.7845 28.5195H26.2695C25.287 28.5195 24.4361 29.0802 23.9565 29.9118L21.328 29.8793L17.581 29.8768C16.209 29.8993 14.7441 29.9265 13.2753 30.0368C12.5401 30.0955 11.8068 30.1723 11.0886 30.2749L8.99679 30.5719C8.32226 30.6549 7.65547 30.7769 7.01715 30.8843C6.38562 31.0134 5.79207 31.1804 5.25183 31.356C4.71523 31.5509 4.22304 31.7325 3.8048 31.9519C3.37566 32.14 3.0275 32.3755 2.73078 32.5447C2.16008 32.9195 1.81988 33.2385 1.84086 33.2209C1.62312 33.4313 2.33726 34.2723 2.555 34.0619C2.57422 34.0434 2.77519 33.8333 3.27804 33.4657C3.53926 33.3042 3.83984 33.0774 4.22902 32.888C4.60285 32.6698 5.05355 32.4823 5.54679 32.2778C6.04531 32.0919 6.59785 31.9098 7.19152 31.7609C7.78906 31.6349 8.42164 31.4849 9.10554 31.38L11.1895 31.0122C11.8934 30.8872 12.6112 30.7875 13.3309 30.7055C14.7728 30.5482 16.2286 30.4715 17.5937 30.403L21.3311 30.2792L24.0116 30.2217L30.4753 37.1163C31.2842 37.2423 32.1853 37.3199 33.2254 37.3199C33.3516 37.3199 34.0769 37.3038 34.989 37.271L26.7845 28.5195Z" fill="#FF473E"/>
<path d="M11.041 39.4116H10.5722V31.0625H11.041V39.4116ZM13.7398 38.0121L8.20494 32.1084L7.87354 32.4619L13.4084 38.3656L13.7398 38.0121Z" fill="#597B91"/>
<path d="M10.8069 32.4741C12.2372 32.4741 13.3966 33.7108 13.3966 35.2365C13.3966 36.7621 12.2372 37.9988 10.8069 37.9988C9.37662 37.9988 8.21717 36.7621 8.21717 35.2365C8.21717 33.7108 9.37662 32.4741 10.8069 32.4741ZM10.8069 29.9023C8.04947 29.9023 5.80615 32.2952 5.80615 35.2365C5.80615 38.1777 8.04947 40.5706 10.8069 40.5706C13.5643 40.5706 15.8076 38.1777 15.8076 35.2365C15.8076 32.2952 13.5643 29.9023 10.8069 29.9023Z" fill="#2B3B47"/>
<path d="M49.5462 39.8745H49.0775V30.5977H49.5462V39.8745ZM52.5526 32.1329L52.2212 31.7794L46.0713 38.3393L46.4027 38.6928L52.5526 32.1329Z" fill="#597B91"/>
<path d="M53.6605 35.484H44.9634V34.984H53.6605V35.484ZM52.5526 38.3372L46.4027 31.7773L46.0713 32.1308L52.2212 38.6907L52.5526 38.3372Z" fill="#597B91"/>
<path d="M49.3122 32.1661C50.9014 32.1661 52.1896 33.5402 52.1896 35.2353C52.1896 36.9305 50.9014 38.3046 49.3122 38.3046C47.723 38.3046 46.4348 36.9305 46.4348 35.2353C46.4348 33.5402 47.7231 32.1661 49.3122 32.1661ZM49.3122 29.3086C46.2484 29.3086 43.7559 31.9673 43.7559 35.2353C43.7559 38.5033 46.2484 41.1621 49.3122 41.1621C52.3759 41.1621 54.8685 38.5033 54.8685 35.2353C54.8685 31.9673 52.3761 29.3086 49.3122 29.3086Z" fill="#2B3B47"/>
<path d="M11.7559 35.2343C11.7559 35.5028 11.6559 35.7603 11.4778 35.9502C11.2998 36.1401 11.0584 36.2467 10.8066 36.2467C10.5549 36.2467 10.3135 36.1401 10.1354 35.9502C9.95743 35.7603 9.85742 35.5028 9.85742 35.2343C9.85742 34.9657 9.95743 34.7082 10.1354 34.5183C10.3135 34.3284 10.5549 34.2218 10.8066 34.2218C11.0584 34.2218 11.2998 34.3284 11.4778 34.5183C11.6559 34.7082 11.7559 34.9657 11.7559 35.2343ZM49.3119 34.1094C49.0322 34.1094 48.7639 34.2279 48.5661 34.4389C48.3683 34.6499 48.2572 34.936 48.2572 35.2344C48.2572 35.5327 48.3683 35.8189 48.5661 36.0299C48.7639 36.2409 49.0322 36.3594 49.3119 36.3594C49.5916 36.3594 49.8599 36.2409 50.0577 36.0299C50.2554 35.8189 50.3666 35.5327 50.3666 35.2344C50.3666 34.936 50.2554 34.6499 50.0577 34.4389C49.8599 34.2279 49.5916 34.1094 49.3119 34.1094Z" fill="#FF473E"/>
<path d="M49.3125 26.8047C47.5255 26.8062 45.7915 27.4525 44.3924 28.6384C44.2261 28.6008 44.048 28.5682 43.8607 28.5271C43.5519 28.4649 43.2151 28.3882 42.8606 28.3381L41.7525 28.2633C41.3803 28.2351 40.9547 28.2053 40.553 28.2183L39.3271 28.2236C37.684 28.2378 36.0408 28.2186 34.8085 28.2696C33.5761 28.3139 32.7545 28.4088 32.7545 28.4088C32.7481 28.4095 32.7421 28.4127 32.7377 28.4178C32.7334 28.4229 32.731 28.4295 32.731 28.4364C32.731 28.4433 32.7334 28.45 32.7377 28.4551C32.7421 28.4602 32.7481 28.4634 32.7545 28.4641C32.7545 28.4641 33.5761 28.5589 34.8085 28.6033C36.0408 28.6544 37.6839 28.6351 39.3271 28.6493L40.553 28.6546C40.9607 28.6452 41.3291 28.6763 41.7252 28.7087L42.8329 28.7929L43.7922 28.9689C44.0885 29.0268 44.3635 29.0592 44.601 29.1361L45.2203 29.3057C45.5633 29.4008 45.7486 29.4752 45.7486 29.4752C45.7946 29.4943 45.8458 29.4931 45.891 29.472C45.9362 29.4508 45.9717 29.4113 45.9896 29.3623C46.0075 29.3132 46.0064 29.2585 45.9866 29.2103C45.9667 29.1621 45.9297 29.1243 45.8837 29.1052L45.8796 29.1034C45.8796 29.1034 45.6811 29.0183 45.3306 28.9117L44.8478 28.7666C46.1419 27.751 47.7062 27.2027 49.3127 27.2016C53.4649 27.2016 56.8433 30.8052 56.8433 35.2346H57.2162C57.2159 30.5862 53.67 26.8047 49.3125 26.8047Z" fill="#597B91"/>
<path d="M37.7373 37.1302C38.3305 37.0872 38.8383 37.0366 39.143 36.9779C40.1711 36.7803 40.5689 36.4126 41.0856 36.0417L33.2316 27.6641C33.1174 27.9687 32.9427 28.2571 32.6801 28.5177H29.6631" fill="#FF473E"/>
<path d="M4.64576 37.6551H0.516777C0.405231 37.6551 0.298253 37.6078 0.219378 37.5237C0.140503 37.4395 0.0961914 37.3254 0.0961914 37.2064C0.0961914 37.0875 0.140503 36.9733 0.219378 36.8892C0.298253 36.8051 0.405231 36.7578 0.516777 36.7578H4.64576C4.75731 36.7578 4.86429 36.8051 4.94316 36.8892C5.02204 36.9733 5.06635 37.0875 5.06635 37.2064C5.06635 37.3254 5.02204 37.4395 4.94316 37.5237C4.86429 37.6078 4.75731 37.6551 4.64576 37.6551Z" fill="#597B91"/>
</svg>
