<svg width="22" height="24" viewBox="0 0 22 24" fill="none" xmlns="http://www.w3.org/2000/svg">
<path d="M19.6429 10.5H18.4643V7.125C18.4643 3.19687 15.1152 0 11 0C6.88482 0 3.53571 3.19687 3.53571 7.125V10.5H2.35714C1.0558 10.5 0 11.5078 0 12.75V21.75C0 22.9922 1.0558 24 2.35714 24H19.6429C20.9442 24 22 22.9922 22 21.75V12.75C22 11.5078 20.9442 10.5 19.6429 10.5ZM14.5357 10.5H7.46429V7.125C7.46429 5.26406 9.05045 3.75 11 3.75C12.9496 3.75 14.5357 5.26406 14.5357 7.125V10.5Z" fill="#FF3A41"/>
</svg>
