<svg width="248" height="233" viewBox="0 0 248 233" fill="none" xmlns="http://www.w3.org/2000/svg">
<g clip-path="url(#clip0)">
<path d="M209.179 63.4873C209.112 63.5118 209.039 63.5156 208.97 63.4982L95.254 34.7867C94.9082 34.7002 94.542 34.72 94.2046 34.8435C93.8671 34.9669 93.5746 35.1881 93.3664 35.4773L25.3657 130.324C25.3119 130.399 25.2303 130.45 25.1388 130.467C25.0472 130.484 24.9533 130.464 24.8777 130.413C24.8021 130.361 24.7509 130.282 24.7355 130.192C24.72 130.103 24.7416 130.011 24.7954 129.935L92.7961 35.0888C93.0877 34.684 93.4973 34.3743 93.9697 34.2015C94.4422 34.0287 94.9548 34.001 95.4389 34.1221L209.155 62.8334C209.227 62.8516 209.29 62.8918 209.337 62.9484C209.383 63.0049 209.409 63.0747 209.412 63.1476C209.415 63.2206 209.394 63.2929 209.352 63.354C209.31 63.415 209.249 63.4617 209.179 63.4873L209.179 63.4873Z" fill="#3F3D56"/>
<path d="M31.3582 130.695L95.0333 36.8438L206.409 72.0107L141.186 149.799L92.7186 156.157L31.3582 130.695Z" fill="#E6E6E6"/>
<path d="M110.859 194.218L68.1808 209.752C67.9189 209.848 67.6411 209.892 67.3634 209.883C67.0857 209.874 66.8135 209.811 66.5624 209.698C66.3112 209.585 66.0861 209.424 65.8999 209.224C65.7136 209.025 65.5699 208.791 65.4769 208.535C65.384 208.28 65.3436 208.008 65.358 207.736C65.3725 207.463 65.4416 207.195 65.5613 206.947C65.681 206.699 65.8491 206.476 66.0558 206.29C66.2625 206.105 66.5038 205.96 66.766 205.865L109.445 190.331C109.707 190.236 109.984 190.191 110.262 190.201C110.54 190.21 110.812 190.273 111.063 190.386C111.314 190.499 111.539 190.66 111.726 190.859C111.912 191.059 112.056 191.293 112.149 191.548C112.241 191.804 112.282 192.075 112.267 192.348C112.253 192.62 112.184 192.888 112.064 193.136C111.944 193.384 111.776 193.608 111.57 193.793C111.363 193.979 111.122 194.123 110.859 194.218Z" fill="#00B1FF"/>
<path d="M80.451 195.824L65.1388 201.397C64.8769 201.493 64.5991 201.537 64.3214 201.528C64.0437 201.518 63.7715 201.455 63.5204 201.342C63.2693 201.229 63.0441 201.068 62.8579 200.869C62.6716 200.669 62.5279 200.435 62.4349 200.18C62.342 199.924 62.3016 199.653 62.316 199.38C62.3305 199.108 62.3996 198.84 62.5193 198.592C62.639 198.344 62.8071 198.121 63.0138 197.935C63.2205 197.749 63.4618 197.605 63.724 197.51L79.0362 191.937C79.2981 191.841 79.5759 191.796 79.8536 191.806C80.1313 191.815 80.4035 191.878 80.6546 191.991C80.9057 192.104 81.1309 192.265 81.3171 192.464C81.5034 192.664 81.6471 192.898 81.74 193.153C81.833 193.409 81.8734 193.681 81.859 193.953C81.8445 194.226 81.7754 194.493 81.6557 194.741C81.5359 194.989 81.3679 195.213 81.1612 195.398C80.9545 195.584 80.7131 195.729 80.451 195.824Z" fill="#00B1FF"/>
<path d="M131.615 133.571C131.291 133.689 130.947 133.745 130.604 133.734L69.4813 131.578L44.9311 64.1267C44.7148 63.53 44.75 62.8696 45.0292 62.2903C45.3084 61.7111 45.8087 61.2603 46.4203 61.0369L148.632 23.8347C149.245 23.6127 149.918 23.6364 150.504 23.9007C151.09 24.165 151.542 24.6482 151.759 25.2444L176.327 92.7425L176.242 92.8207L132.52 133.025C132.258 133.263 131.95 133.449 131.615 133.571Z" fill="white"/>
<path d="M131.673 133.73C131.328 133.857 130.961 133.916 130.595 133.905L69.3552 131.744L44.766 64.1858C44.5341 63.5465 44.5719 62.8389 44.871 62.2183C45.1702 61.5976 45.7062 61.1147 46.3615 60.8753L148.574 23.6731C149.23 23.4352 149.951 23.4607 150.579 23.7438C151.207 24.0269 151.691 24.5447 151.924 25.1835L176.53 92.7877L132.639 133.148C132.359 133.403 132.031 133.601 131.673 133.73ZM69.8584 131.075L130.63 133.219C131.195 133.235 131.747 133.03 132.166 132.65L175.716 92.6033L151.265 25.4235C151.093 24.9551 150.739 24.5754 150.278 24.3678C149.817 24.1601 149.289 24.1415 148.808 24.3159L46.5955 61.5181C46.1149 61.6937 45.7219 62.0478 45.5025 62.5029C45.2832 62.9581 45.2554 63.4769 45.4254 63.9458L69.8584 131.075Z" fill="#3F3D56"/>
<path d="M208.286 63.0845L208.22 63.1085L176.103 92.6397L132.16 133.045C131.987 133.201 131.786 133.324 131.567 133.405C131.348 133.486 131.115 133.524 130.882 133.517L69.5876 131.357L25.0979 129.789L25.0293 129.784L24.9633 129.808C24.3516 130.032 23.8513 130.483 23.5721 131.062C23.2929 131.641 23.2577 132.301 23.4741 132.898L59.0347 230.6C59.2525 231.196 59.704 231.68 60.2902 231.944C60.8764 232.208 61.5494 232.232 62.1616 232.01L245.484 165.286C246.096 165.062 246.596 164.612 246.875 164.032C247.154 163.453 247.19 162.793 246.973 162.196L211.413 64.4941C211.195 63.8979 210.743 63.4147 210.157 63.1504C209.571 62.8861 208.898 62.8624 208.286 63.0845ZM246.314 162.436C246.469 162.862 246.444 163.334 246.244 163.748C246.045 164.162 245.687 164.484 245.25 164.643L61.9276 231.367C61.4904 231.526 61.0095 231.509 60.5907 231.32C60.1719 231.132 59.8494 230.786 59.6941 230.36L24.1335 132.658C23.9829 132.242 24.0029 131.783 24.1895 131.376C24.3761 130.969 24.7147 130.646 25.1346 130.474L69.8403 132.051L130.845 134.204C131.504 134.223 132.148 133.984 132.635 133.541L176.356 93.3371L208.586 63.7032C209.017 63.5663 209.484 63.5971 209.887 63.7891C210.291 63.9811 210.601 64.3196 210.753 64.7341L246.314 162.436Z" fill="#3F3D56"/>
<path d="M124.121 114.637C122.155 115.357 120.015 115.434 118.023 114.856L117.899 114.82L91.7736 106.966C90.5634 106.601 89.4423 106.006 88.4741 105.213C87.5059 104.42 86.7096 103.445 86.1307 102.344C85.5518 101.243 85.2017 100.037 85.1003 98.7956C84.9989 97.5542 85.1481 96.3014 85.5396 95.1086C85.9311 93.9158 86.557 92.8064 87.3818 91.8438C88.2066 90.8813 89.2139 90.0843 90.3464 89.4985C91.4789 88.9126 92.7143 88.5494 93.9822 88.4295C95.25 88.3096 96.5254 88.4354 97.7355 88.7997L114.663 93.9024L131.561 42.48C131.952 41.2873 132.579 40.1782 133.404 39.2159C134.229 38.2536 135.237 37.4569 136.369 36.8715C137.502 36.2861 138.738 35.9233 140.005 35.8039C141.273 35.6845 142.549 35.8107 143.759 36.1755L143.657 36.5054L143.765 36.1774C146.207 36.9165 148.234 38.5801 149.402 40.8034C150.57 43.0267 150.783 45.6281 149.995 48.0367L130.119 108.522C129.658 109.917 128.877 111.194 127.837 112.255C126.797 113.315 125.525 114.13 124.121 114.637Z" fill="#00B1FF"/>
</g>
<defs>
<clipPath id="clip0">
<rect width="200" height="175" fill="white" transform="translate(0 68.4043) rotate(-20)"/>
</clipPath>
</defs>
</svg>
