<svg width="26" height="26" viewBox="0 0 26 26" fill="none" xmlns="http://www.w3.org/2000/svg">
<path d="M23.4688 8.59221C22.8991 7.23261 22.0704 5.99682 21.0287 4.95373C19.9902 3.90883 18.7566 3.07807 17.3979 2.50862C16.006 1.92243 14.5105 1.62195 13.0002 1.62502H12.9494C11.4133 1.63264 9.92796 1.93733 8.52894 2.53655C7.18189 3.11183 5.95984 3.94407 4.93108 4.98674C3.89954 6.02749 3.08029 7.25895 2.51897 8.61252C1.9363 10.0201 1.64105 11.53 1.65062 13.0533C1.65823 14.8155 2.07972 16.5649 2.86683 18.1289V21.9883C2.86683 22.6332 3.38987 23.1563 4.03226 23.1563H7.88655C9.45791 23.9492 11.1919 24.3664 12.952 24.375H13.0053C14.5237 24.375 15.9938 24.0805 17.3801 23.5041C18.7319 22.9415 19.961 22.1204 20.9983 21.0869C22.0444 20.0485 22.867 18.8348 23.4434 17.4815C24.0401 16.0799 24.3448 14.5895 24.3524 13.0508C24.3575 11.5045 24.0578 10.0039 23.4688 8.59221ZM7.93226 14.2188C7.26194 14.2188 6.71605 13.6729 6.71605 13C6.71605 12.3272 7.26194 11.7813 7.93226 11.7813C8.60257 11.7813 9.14847 12.3272 9.14847 13C9.14847 13.6729 8.60511 14.2188 7.93226 14.2188ZM13.0002 14.2188C12.3299 14.2188 11.784 13.6729 11.784 13C11.784 12.3272 12.3299 11.7813 13.0002 11.7813C13.6705 11.7813 14.2164 12.3272 14.2164 13C14.2164 13.6729 13.6705 14.2188 13.0002 14.2188ZM18.0682 14.2188C17.3979 14.2188 16.852 13.6729 16.852 13C16.852 12.3272 17.3979 11.7813 18.0682 11.7813C18.7385 11.7813 19.2844 12.3272 19.2844 13C19.2844 13.6729 18.7385 14.2188 18.0682 14.2188Z" fill="#FFAF61"/>
</svg>
