<svg width="32" height="32" viewBox="0 0 32 32" fill="none" xmlns="http://www.w3.org/2000/svg">
<path d="M29.7938 2.25391V12.5689H25.6888V2.25391H29.7938Z" fill="#1BABFC"/>
<path d="M29.8195 6.35891H19.5045V2.25391H29.8195V6.35891Z" fill="#1BABFC"/>
<path d="M27.5973 7.35562L19.7183 15.2346L16.8158 12.3321L24.6945 4.45312L27.5973 7.35562Z" fill="#1BABFC"/>
<path d="M19.3725 12.6761C15.3825 8.68609 8.91252 8.68609 4.92252 12.6761C0.932523 16.6661 0.932523 23.1361 4.92252 27.1261C8.91252 31.1161 15.3825 31.1161 19.3725 27.1261C23.3625 23.1361 23.3625 16.6661 19.3725 12.6761ZM7.90252 24.1461C5.55752 21.8011 5.55752 18.0011 7.90252 15.6561C10.2475 13.3111 14.0475 13.3111 16.3925 15.6561C18.7375 18.0011 18.7375 21.8011 16.3925 24.1461C14.05 26.4911 10.2475 26.4911 7.90252 24.1461Z" fill="#1BABFC"/>
</svg>
