<svg width="32" height="32" viewBox="0 0 32 32" fill="none" xmlns="http://www.w3.org/2000/svg">
<path d="M17.9815 20.9258V31.0033H13.7665V20.9258H17.9815Z" fill="#FF3A41"/>
<path d="M20.9125 27.883H10.835V23.668H20.9125V27.883Z" fill="#FF3A41"/>
<path d="M15.875 1.17188C10.2325 1.17188 5.65747 5.74687 5.65747 11.3894C5.65747 17.0319 10.2325 21.6069 15.875 21.6069C21.5175 21.6069 26.0925 17.0319 26.0925 11.3894C26.0925 5.74687 21.5175 1.17188 15.875 1.17188ZM15.875 17.3944C12.56 17.3944 9.86997 14.7069 9.86997 11.3894C9.86997 8.07437 12.5575 5.38437 15.875 5.38437C19.1925 5.38437 21.88 8.07187 21.88 11.3894C21.88 14.7044 19.19 17.3944 15.875 17.3944Z" fill="#FF3A41"/>
</svg>
