<svg width="32" height="32" viewBox="0 0 32 32" fill="none" xmlns="http://www.w3.org/2000/svg">
<path d="M25.4375 9.13078C25.4375 9.13078 25.4475 9.18828 25.46 9.29578C25.4775 9.39078 25.51 9.51578 25.565 9.67328C25.8975 10.6358 26.7425 11.1458 27.555 11.5783C28.42 12.0383 29.34 12.5058 29.96 13.2208C30.5825 13.9383 30.965 14.8883 30.63 15.8333C30.3375 16.6583 29.4725 17.3833 28.4975 17.4308C28.2075 17.4483 27.965 17.3958 27.79 17.3333C27.66 17.2871 27.5409 17.2148 27.44 17.1208C27.3775 17.0558 27.3525 17.0208 27.3525 17.0208C27.3175 16.9733 27.335 16.9083 27.3925 16.8733C27.4225 16.8558 27.4575 16.8483 27.49 16.8558L27.51 16.8583C27.51 16.8583 27.55 16.8658 27.625 16.8783C27.6625 16.8833 27.7075 16.8833 27.7575 16.8883C27.8125 16.8833 27.8675 16.8833 27.9325 16.8733C28.4025 16.7933 28.815 16.4708 28.9125 16.0508C28.98 15.7608 28.9075 15.4658 28.7625 15.2133C28.43 14.6258 27.8225 14.2708 27.2625 13.8583C26.6675 13.4183 25.9925 13.0208 25.5275 12.4358C25.0575 11.8483 24.72 11.0633 24.7975 10.1983C24.815 10.0158 25.0625 8.81078 25.3775 9.04078C25.4125 9.06328 25.43 9.09578 25.4375 9.13078Z" fill="url(#paint0_linear)"/>
<path d="M26.4775 24.4084C26.1375 24.1109 24.4925 21.3184 24.4975 20.9384L24.54 20.8759L24.5 20.8034C24.4525 20.7184 24.365 20.5584 20.35 21.0284L20.06 21.0634L21.0775 21.9109C21.2 22.0784 22.365 23.6409 23.1425 24.3309C23.6525 24.7834 24.02 25.1109 24.03 25.3734C24.0325 25.4809 23.9775 25.5884 23.8525 25.7134C23.56 26.0059 22.4175 26.7134 21.5 27.2834C20.915 27.6459 20.41 27.9584 20.2425 28.0909C20.0625 28.2334 19.9125 28.7259 19.8825 28.9384L19.8575 29.1209L20.0375 29.0759C20.5575 28.9409 21.5275 28.8759 21.535 28.8759L21.5675 28.8734L26.3375 25.8084C26.4475 25.7359 26.5325 25.6309 26.5725 25.5084C26.67 25.2134 26.7875 24.6809 26.4775 24.4084Z" fill="url(#paint1_linear)"/>
<path d="M13.8951 19.1503C13.8526 19.0728 13.7476 18.9453 13.5126 18.9453C13.1951 18.9453 12.5126 19.1678 10.0451 20.9003C9.78256 21.0053 7.64756 21.8603 6.96006 21.9728C6.59256 22.0328 6.26506 22.3853 6.12756 22.8703C5.96256 23.4528 6.11756 24.0203 6.54256 24.3903C7.08006 24.8578 8.13506 25.9003 8.22006 26.1553C8.34756 26.5378 8.73506 26.6753 9.11006 26.8103C9.25506 26.8628 9.40756 26.9178 9.55006 26.9853C9.69256 27.0553 9.83256 27.1203 9.96756 27.1853L10.2151 27.3028L10.3076 27.0453C10.4451 26.6628 10.6126 26.2828 10.7876 25.8953L10.8651 25.7228L10.7201 25.6003C10.3601 25.3003 10.0626 25.2728 9.88506 25.2578C9.85506 25.2553 9.81256 25.2503 9.80006 25.2478C9.43256 25.0553 8.54256 24.2753 8.24506 23.9053C8.48006 23.8428 8.89006 23.7578 9.26506 23.6803C10.9926 23.3253 12.1426 23.0578 12.3751 22.6003C12.4276 22.4953 12.4376 22.3803 12.4001 22.2728C12.4351 22.0953 12.8076 21.5153 13.0576 21.1303C13.7776 20.0103 14.0776 19.4853 13.8951 19.1503Z" fill="url(#paint2_linear)"/>
<path d="M21.65 28.7582L21.6375 28.6482L21.5275 28.6457C20.97 28.6357 20.5175 28.6882 19.97 28.8307L19.91 28.8457L19.885 28.9032C19.5725 29.6357 19.6175 30.8057 19.6575 30.9682C19.6725 31.0232 19.72 31.0807 19.815 31.0807C19.825 31.0807 19.835 31.0807 19.845 31.0782C20.045 31.0532 21.75 30.1032 21.75 29.8307C21.755 29.7057 21.675 28.9782 21.65 28.7582Z" fill="#603813"/>
<path d="M12.3825 25.707C12.1975 25.4495 11.84 25.3945 11.36 25.3945C11.2075 25.3945 11.0425 25.3995 10.875 25.407C10.765 25.4095 10.655 25.4145 10.55 25.417L10.3125 25.422L10.215 25.6395C10.0425 26.022 9.86251 26.4295 9.71751 26.832L9.63501 27.0595L9.80751 27.2295C10.3975 27.802 10.995 28.0795 11.2975 28.1945C11.3625 28.2195 11.4325 28.232 11.505 28.232C11.7825 28.232 12.0225 28.0345 12.08 27.7645C12.155 27.407 12.3375 26.542 12.445 26.227C12.5325 25.972 12.4425 25.792 12.3825 25.707Z" fill="#603813"/>
<path d="M18.2625 29.4611C18.165 28.9661 17.5375 27.9786 16.7775 27.5586C16.67 27.4986 16.515 27.5536 16.47 27.5711C16.275 27.6511 15.97 27.7936 15.575 28.1111C15.4875 28.1811 15.445 28.2936 15.465 28.4036C15.5425 28.8811 15.675 29.3111 15.87 29.7161C15.9225 29.8236 16.03 29.8936 16.15 29.8936H16.1625L17.97 29.8261C18.06 29.8236 18.145 29.7811 18.2025 29.7086C18.2575 29.6411 18.28 29.5511 18.2625 29.4611Z" fill="#603813"/>
<path d="M23.4775 24.5728C23.3775 24.5853 23.2775 24.5978 23.18 24.6128C22.9025 24.6503 22.64 24.6878 22.385 24.6878C22.09 24.6878 21.8475 24.6378 21.625 24.5328C21.55 24.4528 21.4575 24.4453 21.425 24.4453C21.28 24.4453 21.1775 24.5428 21.0125 24.7478C20.735 25.0953 20.645 25.9203 20.615 26.3803C20.612 26.4258 20.6183 26.4715 20.6337 26.5144C20.649 26.5573 20.673 26.5967 20.7042 26.63C20.7354 26.6632 20.7731 26.6898 20.8149 26.7079C20.8568 26.726 20.9019 26.7353 20.9475 26.7353H20.975C23.075 26.5578 23.455 25.8728 23.52 25.5878C23.5525 25.4503 23.69 25.0553 23.7425 24.9128L23.88 24.5303L23.4775 24.5728Z" fill="#603813"/>
<path d="M26.915 21.8462C26.8775 21.8062 26.84 21.7637 26.8 21.7212C27.77 21.0587 28.755 19.8437 28.53 17.6662C28.385 16.2612 27.71 15.1512 26.58 14.4537C25.4325 13.7462 24.14 13.6412 23.4725 13.6412C23.1875 13.6412 22.915 13.6587 22.6625 13.6962C22.4025 13.7337 22.155 13.7712 21.91 13.8087C20.925 13.9612 19.9925 14.1062 18.4625 14.1062C17.7725 14.1062 17.015 14.0762 16.1475 14.0187C15.0825 13.9462 12.9975 11.8287 11.4725 10.2862C10.5625 9.36375 9.77755 8.56875 9.24255 8.19625C9.14755 8.13125 9.04005 8.09625 8.92255 8.09625C8.82255 8.09625 8.72755 8.12125 8.64005 8.15625C8.44505 7.90625 8.21755 7.78125 7.96255 7.78125C7.67755 7.78125 7.42755 7.94625 7.26255 8.06875C7.21755 8.10125 6.90505 8.28375 6.63005 8.44375C5.87005 8.88625 5.60755 9.04375 5.53755 9.10875C5.45255 9.18625 5.30505 9.38375 5.00505 9.79125C4.36005 10.6637 3.15755 12.2862 2.38505 12.7387C2.30005 12.7887 2.25255 12.8812 2.26255 12.9787C2.27255 13.0762 2.33755 13.1587 2.43005 13.1912C3.62755 13.6037 4.08755 14.9362 4.25505 15.6912C4.27505 15.7837 4.34505 15.8562 4.43505 15.8787C4.47255 15.8887 4.51505 15.8937 4.56755 15.8937C4.87505 15.8937 6.87005 15.4762 7.74005 15.1412C8.17505 17.3687 9.00255 20.0862 9.32755 20.7037C9.79755 21.6012 10.2975 22.2637 10.85 22.7287C10.865 23.2287 10.905 25.2462 10.7025 26.0237C10.4625 26.9437 11.0075 27.6512 11.615 27.9187C11.9175 28.0512 14.24 29.9487 14.485 30.1837C14.5725 30.2662 14.6975 30.3062 14.8675 30.3062C15.3025 30.3062 16.0425 30.0437 16.125 30.0137C16.1925 29.9887 16.2475 29.9362 16.2725 29.8712C16.3 29.8037 16.295 29.7287 16.2625 29.6662C16.0425 29.2362 15.9 28.7712 15.8225 28.2487C15.8144 28.1932 15.7878 28.142 15.7469 28.1034C15.7061 28.0649 15.6535 28.0412 15.5975 28.0362C15.58 28.0337 15.56 28.0337 15.54 28.0337C15.3175 28.0337 15.03 28.1412 14.845 28.2212L13.08 26.2287L14.3525 23.5337C14.5175 23.5487 14.785 23.5662 15.145 23.5662C15.7675 23.5662 16.7675 23.5112 18 23.2462C18.985 23.0362 19.56 22.7837 20.0675 22.5612C20.705 22.2812 21.165 22.0812 22.1775 22.0812C22.3175 22.0812 22.4675 22.0862 22.625 22.0937C23.085 22.3312 23.63 22.6612 23.9775 22.8762C23.6725 23.0512 23.25 23.2962 22.8125 23.5512C22.0825 23.9762 21.3275 24.4137 21.075 24.5512C20.9925 24.5962 20.9425 24.6812 20.945 24.7762C20.9475 24.8687 21 24.9537 21.0825 24.9962C21.705 25.3062 22.4825 25.3537 22.8925 25.3537C23.1125 25.3537 23.33 25.3412 23.535 25.3162C23.61 25.3062 23.6775 25.2637 23.7175 25.1987C24.0875 24.5912 25.97 23.9662 26.68 23.7312L26.815 23.6862C27.0975 23.5912 27.31 23.3137 27.3875 22.9412C27.455 22.6137 27.395 22.3262 27.2225 22.1737C27.1525 22.1037 27.0375 21.9787 26.915 21.8462Z" fill="url(#paint3_linear)"/>
<path d="M2.56002 12.7374C2.52088 12.7232 2.47878 12.7192 2.43766 12.7257C2.39655 12.7323 2.35778 12.7492 2.32502 12.7749C1.75002 13.2199 1.43502 13.6449 1.31502 13.8049L1.28752 13.8399C1.00752 14.1999 0.782516 15.2124 1.36252 15.7899C1.54002 15.9674 1.95752 16.3824 2.72752 16.3824C2.95252 16.3824 3.20002 16.3474 3.45752 16.2774C3.64002 16.2299 3.89752 16.1249 4.12502 16.0299C4.26002 15.9749 4.44002 15.9024 4.50502 15.8824C4.56752 15.8799 4.62752 15.8574 4.67252 15.8124C4.73502 15.7549 3.63002 13.1074 2.56002 12.7374Z" fill="url(#paint4_linear)"/>
<path d="M19.8 17.2969C19.88 17.8144 20.0275 18.3094 20.2 18.7944C20.2875 19.0369 20.3875 19.2719 20.4875 19.5044C20.595 19.7369 20.71 19.9619 20.8325 20.1844C20.9625 20.4019 21.0925 20.6169 21.2425 20.8194C21.3925 21.0194 21.55 21.2069 21.7325 21.3819C22.0925 21.7319 22.51 22.0269 22.9725 22.2794C22.445 22.2044 21.9475 21.9569 21.52 21.6244C21.09 21.2844 20.765 20.8294 20.5125 20.3644C20.255 19.8944 20.0675 19.3894 19.94 18.8744C19.8175 18.3569 19.74 17.8219 19.8 17.2969Z" fill="#B05A2A"/>
<path d="M7.07891 11.9671C7.22539 11.5708 7.05963 11.1444 6.70866 11.0146C6.3577 10.8849 5.95444 11.101 5.80796 11.4973C5.66147 11.8936 5.82724 12.32 6.1782 12.4497C6.52917 12.5795 6.93243 12.3634 7.07891 11.9671Z" fill="#404040"/>
<path d="M22.7625 13.0313C22.0175 12.4788 21.98 13.7288 19.5 13.7713C18.86 13.7813 18.125 13.6888 17.5225 13.4563C17.14 13.3088 16.6575 13.0038 16.2325 13.1163C15.72 13.2513 15.86 14.1763 15.82 14.5938C15.7675 15.1613 15.7225 15.7113 15.7175 16.2838C15.71 17.1238 15.805 18.1263 16.675 18.4438C17.8725 18.8813 19.365 18.8088 20.6125 18.7213C21.46 18.6613 23.36 18.4263 23.755 17.5388C24.1425 16.6738 23.525 14.3938 23.165 13.5613C23.0625 13.3238 22.925 13.1513 22.7625 13.0313Z" fill="url(#paint5_linear)"/>
<path d="M2.87746 13.8057C3.01496 13.8532 3.10246 14.0032 3.09996 14.1507C3.09746 14.2982 3.01996 14.4332 2.91246 14.5357C2.78496 14.6557 2.61246 14.6307 2.58246 14.4382C2.56746 14.3382 2.67496 14.2157 2.65746 14.1057C2.63996 13.9807 2.26746 13.9782 2.50746 13.8607C2.61746 13.8032 2.75746 13.7657 2.87746 13.8057Z" fill="#404040"/>
<path d="M10.5075 7.99181L9.69749 8.35681C10.5925 8.30431 11.74 8.96181 12.3025 8.56431C12.2975 9.39181 11.7925 9.42931 11.16 9.48181C11.5475 9.65431 12.0175 9.70681 12.405 9.58181C12.7925 9.45681 13.03 9.15931 13.03 9.15931C13.03 9.15931 13.2475 9.75681 12.67 10.2068C12.67 10.2068 13.1225 9.96181 13.64 10.0118C14.02 10.0468 14.3625 10.1593 14.7225 10.0318C14.84 10.4718 14.69 10.9743 14.3475 11.2793C14.685 11.4018 15.05 11.4593 15.41 11.4468C15.1725 11.6193 14.92 11.7668 14.6525 11.8893C15.1875 11.9668 15.73 11.9793 16.2675 11.9268C16.4025 11.9143 17.635 11.7993 17.605 11.6393C17.6975 12.1493 17.4975 12.6668 17.2625 13.1293C17.015 13.6193 16.7225 14.0968 16.3075 14.4568C15.35 15.2793 14.175 14.9318 13.1725 14.3818C11.4225 13.4243 11.005 12.5068 10.1725 11.2993C9.63749 10.5218 8.92999 9.42181 8.71499 9.17431C8.57999 9.01931 7.58749 9.04931 7.59749 8.76181C7.61499 8.32931 7.87749 8.12931 8.18999 7.95181C9.35249 7.28181 10.5075 7.99181 10.5075 7.99181Z" fill="url(#paint6_linear)"/>
<path d="M10.8475 22.7244L10.4525 22.3469C10.3525 21.6894 10.28 20.9419 10.385 19.8594C10.565 20.5369 10.6375 21.8669 10.8475 22.7244Z" fill="#B05A2A"/>
<path d="M14.35 23.5313C14.35 23.5313 14.885 22.3513 15.1725 21.1562C15.1725 22.0638 14.8275 23.3788 14.7625 23.5438L14.35 23.5313Z" fill="#B05A2A"/>
<path d="M2.53503 12.875C3.55253 13.265 4.41503 13.9925 4.37503 15.665" stroke="#4E342E" stroke-width="0.25" stroke-miterlimit="10" stroke-linecap="round"/>
<path d="M4.47754 14.7775C5.37504 14.5 6.68754 13.8525 7.66754 13" stroke="#4E342E" stroke-width="0.25" stroke-miterlimit="10" stroke-linecap="round" stroke-linejoin="round"/>
<path d="M9.13247 10.0078L7.89497 11.2078L7.46997 14.9053" stroke="#4E342E" stroke-width="0.25" stroke-miterlimit="10" stroke-linecap="round" stroke-linejoin="round"/>
<path d="M7.84 11.1331C6.935 10.0856 6.3725 9.73063 5.375 9.26562" stroke="#4E342E" stroke-width="0.25" stroke-miterlimit="10" stroke-linecap="round" stroke-linejoin="round"/>
<path d="M3.86745 10.7652C3.29745 10.6402 2.61995 10.1202 2.56245 9.17271C2.55995 9.12021 2.61995 9.09021 2.65745 9.12521C2.90995 9.34771 3.87995 9.54521 4.47495 8.84521C4.74745 8.52521 5.18245 7.99021 5.56245 7.83771C6.55995 7.43771 7.35745 7.94271 7.35745 7.94271C6.60745 8.91021 6.43995 11.3277 3.86745 10.7652Z" fill="url(#paint7_linear)"/>
<path d="M4.37744 15.665C6.37494 15.665 9.62494 14.1975 11.1474 12.375" stroke="#4E342E" stroke-width="0.25" stroke-miterlimit="10" stroke-linecap="round" stroke-linejoin="round"/>
<path d="M8.2375 7.05336C8.3875 6.92336 8.6675 7.02836 8.7125 7.23086C8.93 8.21586 9.2325 10.3634 7.5725 9.79836C5.9375 9.24336 7.485 7.70086 8.2375 7.05336Z" fill="#FFAF61"/>
<path d="M6.93703 9.35336C6.53453 8.65336 7.63703 7.56836 8.23703 7.05336C8.38703 6.92336 8.66703 7.02836 8.71203 7.23086C8.84453 7.83336 9.00953 8.86586 8.73953 9.45336" stroke="#B05A2A" stroke-width="0.125" stroke-miterlimit="10" stroke-linecap="round" stroke-linejoin="round"/>
<path d="M8.355 8.74705C8.335 8.88705 8.30001 9.02955 8.21001 9.13705C8.12001 9.24705 7.96 9.31455 7.8075 9.27205C7.635 9.22455 7.5175 9.05455 7.5 8.89455C7.48 8.73205 7.54 8.57955 7.605 8.43705C7.68 8.27205 8.07 7.77955 8.3775 7.51205C8.47 7.42955 8.3775 8.57705 8.355 8.74705Z" fill="url(#paint8_linear)"/>
<path opacity="0.2" d="M19.5 13.7695L18.3624 14.542C18.3624 14.542 18.7249 15.7495 18.5499 16.9795C18.3749 18.2095 18.02 19.427 18.02 19.427L16.3875 13.772L17.9424 12.457L18.0825 13.7295L19.5 13.7695Z" fill="#262626"/>
<path d="M12.3725 11.2221C12.3652 11.1967 12.3498 11.1743 12.3285 11.1585C12.3073 11.1427 12.2815 11.1343 12.255 11.1346H12.18L11.4175 10.6646C11.34 10.6171 11.245 10.5996 11.17 10.6146C11.1625 10.6146 11.15 10.6146 11.1425 10.6171C11.1325 10.6196 11.1225 10.6221 11.1175 10.6246C11.0275 10.6446 10.9525 10.6871 10.9 10.7521L10.6175 11.0996C10.5725 11.1546 10.545 11.2196 10.535 11.2896C10.28 11.3846 10.115 11.4771 10.05 11.5621C9.9875 11.6396 9.9625 11.7396 9.9775 11.8396C9.9925 11.9296 10.0375 12.0096 10.1 12.0546C10.115 12.0646 10.1275 12.1171 10.11 12.1521C10.0475 12.2721 10.035 12.3996 10.0725 12.5096C10.1175 12.6421 10.2025 12.6996 10.32 12.7446C10.2825 12.9171 10.28 13.0196 10.315 13.0921C10.365 13.1921 10.4475 13.2346 10.5025 13.2621C10.5225 13.2721 10.5475 13.2846 10.5475 13.2771C10.55 13.2871 10.55 13.3021 10.55 13.3146C10.5525 13.3796 10.555 13.4596 10.6 13.5221C10.6625 13.6096 10.7775 13.6546 10.94 13.6546C11.045 13.6546 11.1675 13.6371 11.31 13.5996C11.795 13.5371 12.7425 12.8821 12.785 12.8546C12.83 12.8246 12.85 12.7671 12.8325 12.7146L12.3725 11.2221Z" fill="url(#paint9_linear)"/>
<path d="M14.26 2.4394C13.57 1.7294 12.2775 1.3444 11.3575 1.7119C10.3275 2.1219 9.92248 3.0194 9.98498 4.0294C10.0075 4.3944 10.095 4.7444 10.21 4.9819C10.225 5.0094 10.33 5.2144 10.35 5.2819C10.4475 5.5369 9.99748 5.9094 9.99998 6.2144C10.0025 6.4419 10.49 6.4819 10.535 6.5119C10.7575 6.6694 10.74 7.7469 12.0125 7.5644C12.5 7.4944 12.5675 7.3594 12.72 7.3294C13.525 7.1719 14.415 7.4569 14.415 7.4569L15.365 5.9969C15.365 5.9969 14.4875 5.4544 14.5125 5.3619C14.7475 4.4744 14.705 2.8969 14.26 2.4394Z" fill="#A56C43"/>
<path d="M10.78 7.0048C10.955 6.9773 11.1175 6.8973 11.24 6.7573C11.375 6.6023 11.235 6.4948 11.07 6.6123C10.97 6.6848 10.8175 6.7423 10.67 6.7473L10.78 7.0048Z" fill="#473530"/>
<path d="M11.2486 5.60893C11.3744 5.57704 11.4368 5.39496 11.3879 5.20223C11.3391 5.0095 11.1975 4.87912 11.0717 4.91101C10.9459 4.9429 10.8835 5.12499 10.9323 5.31771C10.9812 5.51044 11.1228 5.64082 11.2486 5.60893Z" fill="#42312C"/>
<path d="M10.8975 4.81618C10.7025 4.95368 10.6025 4.83118 10.635 4.69118C10.66 4.58868 10.765 4.47118 11.035 4.43368C11.29 4.39618 11.435 4.50118 11.5275 4.56118C11.62 4.62118 11.6425 4.70868 11.59 4.73368C11.5175 4.76868 11.1375 4.64618 10.8975 4.81618Z" fill="#42312C"/>
<path d="M13.1174 4.96893L13.2349 4.63143C13.3149 4.43643 13.3874 4.26393 13.5499 4.25643C14.0274 4.23393 14.1599 5.06143 13.6724 5.38393C13.6724 5.38393 13.9199 5.96643 14.5324 5.96893C14.5974 5.96893 14.6524 5.96393 14.7024 5.95643C14.8599 5.93393 14.9524 5.78393 14.9524 5.62393C14.9574 4.62643 15.3199 4.73143 15.2499 3.59143C15.1524 2.02643 13.5749 1.38643 12.2799 1.62143C11.7749 1.71393 11.2824 1.91893 10.8799 2.24143C10.7074 2.37643 10.1274 2.89893 10.0624 3.25643C9.97994 3.71143 10.3099 3.99893 10.3099 3.99893C10.3099 3.99893 11.6124 3.56643 12.2524 3.54393C12.3374 3.54143 12.4349 3.54393 12.4874 3.60893C12.5124 3.63643 12.5724 3.83893 12.5849 3.87393C12.7299 4.32893 12.7624 4.63143 12.9749 4.88893C13.0074 4.92893 13.1174 4.96893 13.1174 4.96893Z" fill="#3C2C23"/>
<path d="M23.1924 10.1115C23.1049 9.49398 22.7549 8.93898 22.3549 8.54898C21.7899 7.99648 21.0399 8.50148 20.4874 8.88148C20.4624 8.88148 20.4374 8.88898 20.4149 8.90398L15.7549 12.2365C15.5049 12.3665 15.3049 12.5665 15.1774 12.814C15.0399 13.074 14.9949 13.3715 15.0449 13.6715L16.0824 19.444C16.0924 19.504 16.1449 19.5465 16.2049 19.5465H16.2149L17.7124 19.4215C17.7724 19.4165 17.8224 19.369 17.8274 19.3065C17.8399 19.1515 18.1199 15.5665 17.6499 14.104C18.2674 13.894 20.9649 12.9465 22.3049 11.9965C22.5771 11.8525 22.8058 11.6385 22.9674 11.3765C23.2124 10.984 23.2774 10.5315 23.1924 10.1115Z" fill="url(#paint10_linear)"/>
<path d="M18.3025 18.8863L17.945 15.7363C17.94 15.7038 17.925 15.6713 17.8975 15.6513C17.87 15.6313 17.835 15.6213 17.8025 15.6263L15.4 15.9888C15.3835 15.9913 15.3677 15.997 15.3535 16.0057C15.3393 16.0143 15.3269 16.0258 15.3171 16.0393C15.3073 16.0528 15.3004 16.0681 15.2966 16.0843C15.2928 16.1005 15.2922 16.1173 15.295 16.1338L15.8475 19.1838L14.96 19.6638C14.783 19.7656 14.6408 19.9182 14.5516 20.1019C14.4624 20.2855 14.4305 20.4918 14.46 20.6938L14.5025 20.9738C14.5175 21.0663 14.565 21.1488 14.64 21.2038C14.677 21.231 14.719 21.2506 14.7637 21.2614C14.8084 21.2721 14.8547 21.2738 14.9 21.2663L18.355 20.7463C18.5575 20.7163 18.6725 20.4713 18.675 20.0613C18.6775 19.7463 18.3675 19.0313 18.3025 18.8863Z" fill="#444444"/>
<path d="M22.7325 8.87111C21.7 7.13111 19.08 5.60111 16.64 5.31361C16.1 5.25111 14.455 5.05611 14.095 6.74861C13.975 7.03361 13.96 7.67361 14.205 8.10361C14.355 8.36611 14.5825 8.52361 14.8675 8.55611C17.2375 8.83361 18.435 10.2661 18.4475 10.2811C18.4725 10.3111 18.5075 10.3261 18.545 10.3261C18.565 10.3261 18.5875 10.3211 18.605 10.3111C18.6275 10.2986 20.7875 9.10611 22.63 9.06111C22.675 9.05861 22.715 9.03611 22.7375 8.99611C22.7466 8.97636 22.7509 8.95473 22.75 8.93301C22.7491 8.91128 22.7431 8.89006 22.7325 8.87111Z" fill="url(#paint11_radial)"/>
<path d="M15.17 6.20718H15.12C14.5125 6.21968 14.0275 6.72218 14.04 7.32718L14.0625 10.2197L12.0125 11.1147C11.95 11.1422 11.92 11.2147 11.9475 11.2772L12.5875 12.8022C12.6002 12.832 12.6239 12.8559 12.6536 12.8689C12.6834 12.8819 12.7169 12.8831 12.7475 12.8722L15.0775 11.9522C15.8975 11.6972 15.98 10.9947 15.9825 10.9622L16.29 7.29968V7.28718C16.28 6.67968 15.77 6.19718 15.17 6.20718ZM15.685 11.0922H15.6925C15.69 11.0997 15.6875 11.1072 15.6825 11.1172C15.685 11.1097 15.685 11.1022 15.685 11.0922Z" fill="#FB8C00"/>
<path d="M12.7075 5.52656C12.7875 6.41156 12.69 6.95656 12.5825 7.38906C13.0975 7.30906 13.185 6.43406 13.2475 5.73406C13.3075 5.03656 13.24 4.36156 13.24 4.36156L12.405 4.28906C12.405 4.29156 12.6675 5.05906 12.7075 5.52656Z" fill="#262626"/>
<path d="M12.45 1.02558C12.365 1.03058 12.1475 1.05558 12.0675 1.07308C11.615 1.16808 11.03 1.43558 10.6825 1.74558C10.185 2.19058 9.78749 2.73058 9.46499 3.28558C9.30249 3.56558 8.34749 3.81558 8.51499 4.20808C8.85499 4.99808 10.4525 4.11058 11.04 4.14058C11.48 4.16308 11.905 4.30808 12.34 4.36308C13.125 4.46058 13.91 4.50808 14.7 4.52308C14.8125 4.52558 14.9225 4.51808 15.0375 4.50558C15.2125 4.48558 15.4175 4.50058 15.4475 4.30308C15.48 4.09058 15.535 3.83058 15.5275 3.61558C15.475 2.19808 14.2375 0.920582 12.45 1.02558Z" fill="url(#paint12_radial)"/>
<path d="M12.365 11.2299C12.3577 11.2045 12.3423 11.1821 12.321 11.1663C12.2998 11.1505 12.274 11.1421 12.2475 11.1424H12.1725L11.41 10.6724C11.3325 10.6249 11.2375 10.6074 11.1625 10.6224C11.155 10.6224 11.1425 10.6224 11.135 10.6249C11.125 10.6274 11.115 10.6299 11.11 10.6324C11.02 10.6524 10.945 10.6949 10.8925 10.7599L10.61 11.1074C10.565 11.1624 10.5375 11.2274 10.5275 11.2974C10.5275 11.2974 10.4375 11.3824 10.4375 11.5574C10.4375 11.7324 10.535 11.7474 10.565 11.7774C10.6375 11.8499 10.655 11.9974 10.5975 12.0824C10.5425 12.1624 10.5525 12.2724 10.5725 12.3674C10.595 12.4874 10.665 12.5224 10.775 12.5674C10.8275 12.5874 10.855 12.6424 10.8375 12.6949C10.8125 12.7674 10.795 12.8574 10.8075 12.9274C10.82 12.9974 10.895 13.0599 10.965 13.1074C11.0075 13.1374 11.0375 13.1599 11.04 13.2124C11.0425 13.2574 10.875 13.4824 11.05 13.6449C11.0925 13.6824 11.2375 13.6199 11.3025 13.6024C11.7875 13.5399 12.735 12.8849 12.7775 12.8574C12.8225 12.8274 12.8425 12.7699 12.825 12.7174L12.365 11.2299Z" fill="url(#paint13_linear)"/>
<defs>
<linearGradient id="paint0_linear" x1="27.7735" y1="8.78653" x2="27.7735" y2="17.678" gradientUnits="userSpaceOnUse">
<stop offset="0.001" stop-color="#C69C6D"/>
<stop offset="0.007" stop-color="#C59B6C"/>
<stop offset="0.685" stop-color="#7D542C"/>
<stop offset="1" stop-color="#603813"/>
</linearGradient>
<linearGradient id="paint1_linear" x1="23.5875" y1="28.1189" x2="22.7503" y2="25.0956" gradientUnits="userSpaceOnUse">
<stop offset="0.232" stop-color="#FFAF61"/>
<stop offset="0.415" stop-color="#FCAC5F"/>
<stop offset="0.572" stop-color="#F3A159"/>
<stop offset="0.719" stop-color="#E38F50"/>
<stop offset="0.86" stop-color="#CD7742"/>
<stop offset="0.905" stop-color="#C46D3D"/>
</linearGradient>
<linearGradient id="paint2_linear" x1="6.18781" y1="23.1231" x2="10.5436" y2="23.1231" gradientUnits="userSpaceOnUse">
<stop offset="0.232" stop-color="#FFAF61"/>
<stop offset="0.415" stop-color="#FCAC5F"/>
<stop offset="0.572" stop-color="#F3A159"/>
<stop offset="0.719" stop-color="#E38F50"/>
<stop offset="0.86" stop-color="#CD7742"/>
<stop offset="0.905" stop-color="#C46D3D"/>
</linearGradient>
<linearGradient id="paint3_linear" x1="15.412" y1="10.2122" x2="15.412" y2="29.7015" gradientUnits="userSpaceOnUse">
<stop stop-color="#FFAF61"/>
<stop offset="0.028" stop-color="#F7A65C"/>
<stop offset="0.125" stop-color="#E18D4F"/>
<stop offset="0.226" stop-color="#D17B45"/>
<stop offset="0.333" stop-color="#C7703F"/>
<stop offset="0.454" stop-color="#C46D3D"/>
<stop offset="0.62" stop-color="#D27D46"/>
<stop offset="0.942" stop-color="#F8A75C"/>
<stop offset="1" stop-color="#FFAF61"/>
</linearGradient>
<linearGradient id="paint4_linear" x1="2.83902" y1="12.7824" x2="2.83902" y2="16.5414" gradientUnits="userSpaceOnUse">
<stop stop-color="#FFF1C4"/>
<stop offset="0.426" stop-color="#FFE2A7"/>
<stop offset="1" stop-color="#FFCA7B"/>
</linearGradient>
<linearGradient id="paint5_linear" x1="16.3935" y1="12.6291" x2="21.956" y2="17.9416" gradientUnits="userSpaceOnUse">
<stop stop-color="#FBC02D"/>
<stop offset="0.687" stop-color="#FEDC36"/>
<stop offset="0.999" stop-color="#FFEB3B"/>
</linearGradient>
<linearGradient id="paint6_linear" x1="6.31999" y1="6.74581" x2="14.165" y2="12.1856" gradientUnits="userSpaceOnUse">
<stop offset="0.001" stop-color="#C69C6D"/>
<stop offset="0.007" stop-color="#C59B6C"/>
<stop offset="0.685" stop-color="#7D542C"/>
<stop offset="1" stop-color="#603813"/>
</linearGradient>
<linearGradient id="paint7_linear" x1="4.20195" y1="8.10646" x2="6.41045" y2="10.348" gradientUnits="userSpaceOnUse">
<stop offset="0.001" stop-color="#C69C6D"/>
<stop offset="0.007" stop-color="#C59B6C"/>
<stop offset="0.685" stop-color="#7D542C"/>
<stop offset="1" stop-color="#603813"/>
</linearGradient>
<linearGradient id="paint8_linear" x1="8.53804" y1="7.15267" x2="7.82412" y2="9.03629" gradientUnits="userSpaceOnUse">
<stop stop-color="#D49151"/>
<stop offset="0.319" stop-color="#D28E4F"/>
<stop offset="0.593" stop-color="#CE8349"/>
<stop offset="0.849" stop-color="#C6713F"/>
<stop offset="0.9" stop-color="#C46D3D"/>
</linearGradient>
<linearGradient id="paint9_linear" x1="11.0543" y1="12.1651" x2="10.3668" y2="12.3813" gradientUnits="userSpaceOnUse">
<stop stop-color="#A56C43"/>
<stop offset="1" stop-color="#8D5738"/>
</linearGradient>
<linearGradient id="paint10_linear" x1="16.4284" y1="16.103" x2="23.0047" y2="9.78973" gradientUnits="userSpaceOnUse">
<stop offset="0.201" stop-color="#EEEEEE"/>
<stop offset="1" stop-color="#BDBDBD"/>
</linearGradient>
<radialGradient id="paint11_radial" cx="0" cy="0" r="1" gradientUnits="userSpaceOnUse" gradientTransform="translate(14.0482 7.33736) scale(8.1285)">
<stop offset="0.367" stop-color="#FB8C00"/>
<stop offset="0.672" stop-color="#F67F00"/>
<stop offset="1" stop-color="#EF6C00"/>
</radialGradient>
<radialGradient id="paint12_radial" cx="0" cy="0" r="1" gradientUnits="userSpaceOnUse" gradientTransform="translate(12.0132 2.77908) scale(2.78)">
<stop stop-color="#757575"/>
<stop offset="1" stop-color="#616161"/>
</radialGradient>
<linearGradient id="paint13_linear" x1="10.6935" y1="12.2187" x2="12.3215" y2="11.9162" gradientUnits="userSpaceOnUse">
<stop offset="0.5" stop-color="#A56C43"/>
<stop offset="1" stop-color="#8D5738"/>
</linearGradient>
</defs>
</svg>
