<svg width="26" height="26" viewBox="0 0 26 26" fill="none" xmlns="http://www.w3.org/2000/svg">
<g clip-path="url(#clip0)">
<path d="M25.0714 1.62501H18.1071L17.5616 0.6754C17.446 0.472383 17.268 0.30161 17.0476 0.182293C16.8272 0.0629747 16.573 -0.000153764 16.3138 8.90333e-06H9.68036C9.42174 -0.000861007 9.16807 0.0620321 8.94841 0.181483C8.72876 0.300933 8.552 0.472109 8.43839 0.6754L7.89286 1.62501H0.928571C0.682299 1.62501 0.446113 1.71061 0.271972 1.86298C0.0978314 2.01536 0 2.22202 0 2.43751L0 4.06251C0 4.278 0.0978314 4.48466 0.271972 4.63703C0.446113 4.78941 0.682299 4.87501 0.928571 4.87501H25.0714C25.3177 4.87501 25.5539 4.78941 25.728 4.63703C25.9022 4.48466 26 4.278 26 4.06251V2.43751C26 2.22202 25.9022 2.01536 25.728 1.86298C25.5539 1.71061 25.3177 1.62501 25.0714 1.62501ZM3.0875 23.7149C3.13179 24.3337 3.44393 24.9145 3.96039 25.339C4.47685 25.7636 5.15879 25.9999 5.86741 26H20.1326C20.8412 25.9999 21.5232 25.7636 22.0396 25.339C22.5561 24.9145 22.8682 24.3337 22.9125 23.7149L24.1429 6.50001H1.85714L3.0875 23.7149Z" fill="#FF3A41" fill-opacity="0.5"/>
</g>
<defs>
<clipPath id="clip0">
<rect width="26" height="26" fill="white"/>
</clipPath>
</defs>
</svg>
