<svg width="60" height="64" viewBox="0 0 60 64" fill="none" xmlns="http://www.w3.org/2000/svg">
<g clip-path="url(#clip0)">
<path d="M30 64C46.5685 64 60 49.6731 60 32C60 14.3269 46.5685 0 30 0C13.4315 0 0 14.3269 0 32C0 49.6731 13.4315 64 30 64Z" fill="#F5F8FA"/>
<path d="M29.9997 19.5544C29.5576 19.5544 29.1337 19.3671 28.8212 19.0337C28.5086 18.7003 28.333 18.2481 28.333 17.7766V5.3322C28.333 4.86071 28.5086 4.40852 28.8212 4.07512C29.1337 3.74172 29.5576 3.55442 29.9997 3.55442C30.4417 3.55442 30.8656 3.74172 31.1782 4.07512C31.4907 4.40852 31.6663 4.86071 31.6663 5.3322V17.7766C31.6663 18.2481 31.4907 18.7003 31.1782 19.0337C30.8656 19.3671 30.4417 19.5544 29.9997 19.5544ZM19.028 27.5544C18.8572 27.5545 18.6874 27.5263 18.5247 27.4709L5.123 22.9518C4.70152 22.8096 4.35025 22.4947 4.14647 22.0763C3.94268 21.6578 3.90306 21.1702 4.03633 20.7206C4.1696 20.2711 4.46484 19.8964 4.85711 19.679C5.24937 19.4616 5.70652 19.4194 6.128 19.5615L19.5313 24.0806C19.9115 24.2081 20.2363 24.4766 20.4469 24.8376C20.6574 25.1986 20.7396 25.6281 20.6788 26.0482C20.6179 26.4683 20.4179 26.8513 20.1151 27.1276C19.8122 27.4039 19.4265 27.5554 19.028 27.5544ZM41.7363 27.0371C41.336 27.0347 40.9498 26.8789 40.6483 26.5981C40.3467 26.3173 40.1499 25.9301 40.0937 25.5073C40.0375 25.0846 40.1257 24.6543 40.3422 24.2951C40.5587 23.936 40.8891 23.6718 41.273 23.5509L52.523 20.07C52.9456 19.9456 53.3972 20.0038 53.7798 20.2321C54.1625 20.4603 54.4454 20.8402 54.5673 21.2894C54.6892 21.7387 54.6402 22.221 54.431 22.632C54.2218 23.043 53.8693 23.3495 53.4497 23.4851L42.1997 26.966C42.0492 27.0131 41.8932 27.037 41.7363 27.0371ZM45.0713 53.6291C44.8113 53.6293 44.5549 53.5646 44.3225 53.4402C44.0901 53.3158 43.8882 53.1351 43.733 52.9126L34.6347 39.8762C34.4989 39.6894 34.3993 39.4755 34.3419 39.2472C34.2845 39.0189 34.2704 38.7806 34.3004 38.5464C34.3304 38.3121 34.4038 38.0866 34.5165 37.8831C34.6292 37.6795 34.7788 37.5019 34.9566 37.3608C35.1343 37.2196 35.3367 37.1177 35.5519 37.061C35.767 37.0042 35.9906 36.9939 36.2096 37.0304C36.4286 37.067 36.6385 37.1498 36.8271 37.274C37.0157 37.3981 37.1792 37.5612 37.308 37.7535L46.4063 50.79C46.5907 51.0542 46.7026 51.3679 46.7296 51.6961C46.7565 52.0242 46.6975 52.3539 46.559 52.6483C46.4206 52.9428 46.2082 53.1904 45.9455 53.3636C45.6828 53.5368 45.3801 53.6287 45.0713 53.6291ZM14.5813 53.4815C14.277 53.4812 13.9786 53.392 13.7184 53.2237C13.4582 53.0553 13.2462 52.8141 13.1054 52.5264C12.9646 52.2386 12.9003 51.9152 12.9196 51.5912C12.9388 51.2673 13.0409 50.9551 13.2147 50.6886L21.7563 37.5775C21.8789 37.3802 22.0373 37.2109 22.222 37.0797C22.4068 36.9485 22.6143 36.8579 22.8323 36.8134C23.0503 36.7689 23.2745 36.7713 23.4916 36.8204C23.7087 36.8695 23.9145 36.9645 24.0968 37.0996C24.279 37.2347 24.4342 37.4073 24.5531 37.6072C24.672 37.8071 24.7522 38.0304 24.7892 38.2639C24.8261 38.4973 24.8189 38.7363 24.768 38.9668C24.7172 39.1973 24.6237 39.4146 24.493 39.606L15.9513 52.7171C15.7983 52.9535 15.5935 53.1466 15.3549 53.2798C15.1162 53.413 14.8507 53.4822 14.5813 53.4815ZM5.833 48.1091C5.09966 48.1091 4.42633 47.5882 4.22466 46.7971L0.577997 32.4646C0.520762 32.2392 0.50571 32.004 0.533701 31.7724C0.561691 31.5408 0.632176 31.3173 0.74113 31.1148C0.850084 30.9122 0.995374 30.7345 1.1687 30.5919C1.34203 30.4492 1.54001 30.3444 1.75133 30.2833C1.96265 30.2223 2.18317 30.2062 2.40031 30.2361C2.61744 30.2659 2.82694 30.3411 3.01684 30.4573C3.20673 30.5735 3.37331 30.7285 3.50705 30.9134C3.6408 31.0983 3.7391 31.3095 3.79633 31.5349L7.443 45.8673C7.51054 46.131 7.52003 46.4078 7.47075 46.6761C7.42147 46.9443 7.31473 47.1968 7.15888 47.4138C7.00303 47.6308 6.80227 47.8065 6.57228 47.9271C6.34229 48.0477 6.08928 48.11 5.833 48.1091ZM36.6663 60.4433H21.6663C21.2243 60.4433 20.8004 60.256 20.4878 59.9226C20.1753 59.5892 19.9997 59.137 19.9997 58.6655C19.9997 58.194 20.1753 57.7418 20.4878 57.4085C20.8004 57.0751 21.2243 56.8878 21.6663 56.8878H36.6663C37.1084 56.8878 37.5323 57.0751 37.8448 57.4085C38.1574 57.7418 38.333 58.194 38.333 58.6655C38.333 59.137 38.1574 59.5892 37.8448 59.9226C37.5323 60.256 37.1084 60.4433 36.6663 60.4433ZM53.543 48.2211C53.2901 48.2214 53.0405 48.1603 52.8131 48.0424C52.5856 47.9245 52.3864 47.7529 52.2304 47.5406C52.0744 47.3283 51.9658 47.0809 51.9128 46.8171C51.8599 46.5534 51.8639 46.2803 51.9247 46.0184L55.4663 30.6851C55.5137 30.4529 55.6042 30.2332 55.7325 30.039C55.8608 29.8447 56.0243 29.6799 56.2134 29.5542C56.4024 29.4286 56.6132 29.3446 56.8332 29.3073C57.0532 29.27 57.278 29.2801 57.4942 29.337C57.7105 29.3939 57.9139 29.4965 58.0924 29.6387C58.2708 29.7809 58.4207 29.9598 58.5333 30.1649C58.6458 30.37 58.7187 30.597 58.7475 30.8326C58.7764 31.0682 58.7607 31.3076 58.7013 31.5366L55.1597 46.87C54.9713 47.6789 54.2913 48.2211 53.543 48.2211ZM50.5197 13.6664C50.2271 13.6666 49.9396 13.5844 49.6863 13.4282L37.083 5.65042C36.8935 5.53339 36.7275 5.37769 36.5945 5.1922C36.4614 5.00671 36.3639 4.79508 36.3076 4.56939C36.2513 4.3437 36.2372 4.10839 36.2661 3.87689C36.2951 3.64539 36.3665 3.42224 36.4763 3.2202C36.5856 3.01783 36.7312 2.84045 36.9049 2.69825C37.0786 2.55605 37.2768 2.45181 37.4884 2.39153C37.6999 2.33124 37.9205 2.31609 38.1375 2.34694C38.3545 2.37779 38.5637 2.45404 38.753 2.57131L51.3563 10.3491C51.6743 10.5449 51.9227 10.8473 52.0631 11.2092C52.2034 11.5711 52.2278 11.9723 52.1324 12.3505C52.037 12.7287 51.8272 13.0627 51.5356 13.3007C51.244 13.5386 50.8868 13.6672 50.5197 13.6664ZM9.168 13.6664C8.81481 13.6671 8.47057 13.548 8.18492 13.3265C7.89927 13.1049 7.68699 12.7923 7.5787 12.4337C7.47042 12.0751 7.47172 11.6891 7.58243 11.3314C7.69314 10.9736 7.90753 10.6627 8.19466 10.4433L18.508 2.55354C18.8678 2.29891 19.3061 2.20299 19.7308 2.28595C20.1556 2.3689 20.5336 2.62426 20.7854 2.99835C21.0373 3.37244 21.1434 3.83612 21.0814 4.29191C21.0194 4.74771 20.7941 5.16011 20.453 5.44242L10.138 13.3322C9.85532 13.5489 9.51612 13.6658 9.168 13.6664Z" fill="#CCD6DD"/>
<path d="M42.4883 24.0284L30.475 14.992C30.1913 14.7793 29.8526 14.666 29.5059 14.6679C29.1592 14.6698 28.8216 14.7868 28.54 15.0027L16.595 24.1884C16.3158 24.4033 16.1058 24.7051 15.9939 25.0524C15.8819 25.3997 15.8736 25.7754 15.97 26.128L20.1367 41.3867C20.2376 41.7559 20.4482 42.0803 20.7367 42.3111C21.0252 42.5419 21.376 42.6667 21.7367 42.6667H36.6667C37.0157 42.6668 37.356 42.55 37.6395 42.3327C37.9229 42.1155 38.1353 41.8089 38.2467 41.456L43.1083 26.048C43.2227 25.685 43.2241 25.2924 43.1124 24.9285C43.0007 24.5647 42.7818 24.249 42.4883 24.0284ZM2.15333 34.7413C2.44923 34.7414 2.73981 34.6575 2.99522 34.4981C3.25064 34.3388 3.46168 34.1098 3.60667 33.8347L9.23167 23.168C9.31654 23.0066 9.37728 22.8321 9.41167 22.6507L11.6333 11.0222C11.6831 10.7639 11.6783 10.4969 11.6192 10.2408C11.5602 9.98467 11.4484 9.74579 11.292 9.54151C11.1356 9.33722 10.9385 9.17266 10.715 9.05977C10.4915 8.94689 10.2473 8.88851 10 8.88889H9.28667C3.575 14.7147 0 22.9049 0 32C0 32.4729 0.0466667 32.9333 0.0666667 33.4009L1.07 34.3147C1.37333 34.592 1.75833 34.7413 2.15333 34.7413ZM17.695 5.32444C17.7823 5.51645 17.9116 5.68324 18.072 5.81072C18.2324 5.9382 18.4192 6.02263 18.6167 6.05689L29.2417 7.90933C29.3759 7.93071 29.5124 7.93071 29.6467 7.90933L39.7867 6.13156C39.9526 6.10286 40.1114 6.03866 40.2535 5.9428C40.3956 5.84695 40.5181 5.72142 40.6135 5.57378C40.709 5.42614 40.7754 5.25943 40.8089 5.08368C40.8424 4.90793 40.8422 4.72678 40.8083 4.55111L40.3217 1.98578C37.0179 0.679319 33.5235 0.0070201 30 0C25.9583 0 22.11 0.864 18.5917 2.41067L17.7233 4.09956C17.6274 4.28653 17.5748 4.49526 17.5699 4.70833C17.5649 4.92141 17.6078 5.13265 17.695 5.32444ZM51.89 10.1671L49.3833 9.99822C49.1938 9.98592 49.0042 10.0193 48.8285 10.096C48.6527 10.1726 48.4955 10.2905 48.3683 10.4409C48.2426 10.5913 48.151 10.7705 48.1004 10.9647C48.0499 11.1589 48.0417 11.3628 48.0767 11.5609L50.0217 22.5796C50.05 22.7213 50.1026 22.8563 50.1767 22.9778C52.6633 27.4293 55.43 32.4018 55.8117 33.2569C55.8517 33.4062 55.915 33.3973 56.0017 33.5253C56.235 33.872 56.6217 33.7778 57.0217 33.7778H57.0333C57.3633 33.7778 57.5717 33.9449 59.98 32.4391C59.9817 32.2916 60 32.1476 60 32C60 23.5502 56.9067 15.8862 51.89 10.1671ZM24.235 59.3351C24.253 58.9805 24.1385 58.6328 23.9167 58.368L16.4167 49.4791C16.3167 49.3608 16.1976 49.2626 16.065 49.1893C6.25667 43.7333 6.075 43.6693 5.955 43.6249C5.82469 43.5798 5.68865 43.5564 5.55167 43.5556C4.65667 43.5556 4.39333 43.6711 3.57667 47.1538C7.34401 54.6063 13.7208 60.1678 21.3167 62.6258L23.8167 60.256C24.0649 60.0202 24.2154 59.6891 24.235 59.3351ZM53.9567 44.1049C53.8003 44.0346 53.6321 43.9991 53.4625 44.0006C53.2928 44.0021 53.1252 44.0407 52.97 44.1138L42.8317 48.8551C42.6548 48.9368 42.4983 49.0616 42.375 49.2196L35.2917 58.256C35.1859 58.3914 35.1063 58.5478 35.0574 58.7162C35.0086 58.8845 34.9914 59.0615 35.0069 59.237C35.0223 59.4124 35.0702 59.5829 35.1477 59.7386C35.2252 59.8942 35.3307 60.032 35.4583 60.144C36.5967 61.1378 37.56 61.9751 38.4033 62.704C45.7251 60.4133 51.9547 55.2354 55.8267 48.2222L54.64 44.864C54.5804 44.6946 54.4891 44.5399 54.3716 44.4094C54.2541 44.2789 54.1129 44.1753 53.9567 44.1049Z" fill="#31373D"/>
</g>
<defs>
<clipPath id="clip0">
<rect width="60" height="64" fill="white"/>
</clipPath>
</defs>
</svg>
