<svg width="22" height="24" viewBox="0 0 22 24" fill="none" xmlns="http://www.w3.org/2000/svg">
<path d="M11 13.5C14.416 13.5 17.1875 10.4766 17.1875 6.75C17.1875 3.02344 14.416 0 11 0C7.58398 0 4.8125 3.02344 4.8125 6.75C4.8125 10.4766 7.58398 13.5 11 13.5ZM16.5 15H14.1324C13.1785 15.4781 12.1172 15.75 11 15.75C9.88281 15.75 8.82578 15.4781 7.86758 15H5.5C2.46211 15 0 17.6859 0 21V21.75C0 22.9922 0.923828 24 2.0625 24H19.9375C21.0762 24 22 22.9922 22 21.75V21C22 17.6859 19.5379 15 16.5 15Z" fill="#000000"/>
</svg>
