<svg width="22" height="24" viewBox="0 0 22 24" fill="none" xmlns="http://www.w3.org/2000/svg">
<path d="M21.3931 6.65743L19.4123 8.81837C19.2103 9.03868 18.8837 9.03868 18.6818 8.81837L13.9123 3.61524C13.7103 3.39493 13.7103 3.03868 13.9123 2.81836L15.8931 0.657423C16.6966 -0.219141 18.0029 -0.219141 18.8107 0.657423L21.3931 3.47461C22.2009 4.35118 22.2009 5.77618 21.3931 6.65743ZM12.2107 4.67461L0.927107 16.984L0.0161693 22.6793C-0.10844 23.4481 0.506013 24.1137 1.2107 23.9824L6.4314 22.984L17.715 10.6746C17.9169 10.4543 17.9169 10.0981 17.715 9.87775L12.9455 4.67461C12.7392 4.4543 12.4127 4.4543 12.2107 4.67461ZM5.3314 15.9293C5.09508 15.6715 5.09508 15.259 5.3314 15.0012L11.9486 7.78243C12.1849 7.52462 12.563 7.52462 12.7994 7.78243C13.0357 8.04024 13.0357 8.45274 12.7994 8.71056L6.18218 15.9293C5.94586 16.1871 5.56773 16.1871 5.3314 15.9293ZM3.78023 19.8715H5.84273V21.5731L3.07125 22.1028L1.73492 20.6449L2.22047 17.6215H3.78023V19.8715Z" fill="#373737" fill-opacity="0.5"/>
</svg>
